<?xml version="1.0" encoding="UTF-8" standalone="no"?>
<svg
   xmlns:dc="http://purl.org/dc/elements/1.1/"
   xmlns:cc="http://creativecommons.org/ns#"
   xmlns:rdf="http://www.w3.org/1999/02/22-rdf-syntax-ns#"
   xmlns:svg="http://www.w3.org/2000/svg"
   xmlns="http://www.w3.org/2000/svg"
   viewBox="0 0 505.33334 116"
   height="116"
   width="505.33334"
   xml:space="preserve"
   id="svg2"
   version="1.1"><metadata
     id="metadata8"><rdf:RDF><cc:Work
         rdf:about=""><dc:format>image/svg+xml</dc:format><dc:type
           rdf:resource="http://purl.org/dc/dcmitype/StillImage" /></cc:Work></rdf:RDF></metadata><defs
     id="defs6" /><g
     transform="matrix(1.3333333,0,0,-1.3333333,0,116)"
     id="g10"><g
       transform="scale(0.1)"
       id="g12"><path
         id="path14"
         style="fill:#bd352e;fill-opacity:1;fill-rule:evenodd;stroke:none"
         d="m 3681.33,307.891 c 0.9,-1.129 0.9,-2.231 0,-3.321 -0.39,-0.39 -0.94,-0.59 -1.68,-0.59 -0.55,0 -1.02,0.2 -1.37,0.59 -14.57,12.731 -26.21,39.649 -34.88,80.782 -8.48,41.128 3.24,92.378 35.15,153.789 2,1.679 11.8,18.007 29.3,48.98 17.54,30.789 33.6,69.809 48.17,117.039 14.72,47.219 18.98,95.969 12.69,146.32 -0.16,1.29 0.39,2.149 1.68,2.5 1.49,0 2.38,-0.621 2.77,-1.949 6.45,-50.902 2.23,-100.121 -12.73,-147.691 -14.73,-47.781 -30.98,-87.149 -48.67,-118.168 -17.74,-31.172 -27.58,-47.582 -29.61,-49.223 -25.47,-47.418 -37.54,-88.078 -36.25,-122.027 1.29,-34.102 7.11,-60.352 17.46,-78.832 10.27,-18.43 16.29,-27.852 17.97,-28.199 m 12.97,-30.43 -27.93,-97.109 c -4.96,-4.801 -10.98,-5.082 -17.97,-0.864 h -0.28 l -187.3,109.301 0.27,0.82 30.43,105.981 189.22,-110.121 -29.02,-97.66 c 7.38,-2.93 11.33,-3.039 11.87,-0.27 l 26.84,92.422 3.87,-2.5 m -71.92,-164.883 c -0.54,-1.289 -1.01,-2.617 -1.36,-3.867 -6.84,-15.6993 -13.56,-30.9024 -20.2,-45.6602 -6.48,-14.5703 -7.85,-28.5195 -4.14,-41.7617 -3.71,-2.7696 -7.42,-5.3477 -11.09,-7.7696 -2.78,3.3203 -5.51,6.75 -8.29,10.2305 -3.86,-2.3789 -7.77,-4.6914 -11.64,-6.9102 -2.57,3.5118 -5.04,7.1094 -7.46,10.7813 -4.06,-2.0313 -8.12,-3.9492 -12.18,-5.7813 -2.19,3.6719 -4.42,7.461 -6.64,11.3204 -4.22,-1.6797 -8.36,-3.3204 -12.43,-4.961 -2.03,3.8711 -4.06,7.8203 -6.09,11.8789 -4.26,-1.4492 -8.4,-2.9297 -12.46,-4.4179 -1.84,4.2617 -3.6,8.3984 -5.28,12.4296 -4.37,-1.25 -8.74,-2.4687 -12.96,-3.5585 -1.49,4.2187 -2.97,8.3593 -4.42,12.4179 -4.45,-0.9297 -8.86,-1.8281 -13.28,-2.7695 -1.29,4.2617 -2.62,8.5195 -3.91,12.7305 -4.41,-0.6993 -8.75,-1.4414 -12.96,-2.2188 -1.33,4.4492 -2.43,8.7891 -3.36,13.0078 -4.57,-0.5508 -9.03,-1.0976 -13.25,-1.6484 -1.09,4.418 -2.03,8.75 -2.77,13.0078 -4.61,-0.1875 -9.02,-0.4688 -13.28,-0.8594 -0.94,4.461 -1.64,8.7891 -2.23,13.0118 -4.61,0 -9.02,-0.191 -13.24,-0.551 -0.78,4.61 -1.33,9.07 -1.68,13.289 -4.8,0.192 -9.33,0.27 -13.55,0.27 -0.55,4.41 -0.94,8.871 -1.14,13.281 -4.76,0.59 -9.18,0.738 -13.28,0.59 -1.64,2.379 -1.83,4.68 -0.54,6.91 1.28,2.379 1.4,4.488 0.27,6.328 -0.55,2.774 -0.55,4.063 0,3.871 0.19,-1.097 3.87,-3.211 11.09,-6.328 6.99,-3.172 15.94,-0.121 26.84,9.098 27.81,25.121 34.49,23.711 19.88,-4.141 -6.25,-12.738 -4.49,-17.5 5.27,-14.379 9.77,3.321 24.26,15.121 43.44,35.391 16.8,17.191 24.26,20.199 22.42,9.14 -2.03,-11.25 -3.78,-18.359 -5.27,-21.281 -1.09,-2.039 -4.06,-10.238 -8.87,-24.609 -4.96,-14.61 -5.7,-23.828 -2.18,-27.699 3.51,-3.6722 17.22,9.57 41.21,39.839 24.18,30.43 38.08,44.649 41.79,42.622 3.68,-2.032 3.21,-9.411 -1.4,-22.153 -4.81,-12.73 -7.66,-20 -8.56,-21.828 -1.13,-1.883 -3.71,-9.07 -7.77,-21.601 -3.87,-12.348 -2.85,-18.5981 3.05,-18.7895 6.09,-0.3907 23.63,16.8715 52.57,51.7185 0.9,1.281 5.08,5.153 12.43,11.602 7.38,6.289 12.38,7.301 14.96,3.039 2.58,-4.219 -2.78,-21.68 -16.06,-52.262 m -902.42,-60.5897 545.55,4.4219 c 2.38,0 15.86,0.4687 40.39,1.3593 24.53,0.9414 45.66,2.1524 63.36,3.6407 17.69,1.6406 17.42,3.3906 -0.82,5.2304 -18.28,2.0313 -68.99,3.9492 -152.15,5.8203 l -498.24,9.961 c -2.03,0 -17.35,0.6289 -45.94,1.9179 -28.4,1.129 -57.73,2.6915 -87.97,4.7188 -30.43,2.0312 -49.34,4.3398 -56.72,6.9219 -7.38,2.7695 9.03,5.6215 49.22,8.5895 40.24,2.93 116.48,5.981 228.83,9.102 l 566.01,9.687 c 0.16,-0.199 0.43,-0.468 0.82,-0.82 1.84,-1.879 4.42,-2.769 7.74,-2.769 1.13,-0.2 2.3,-0.122 3.59,0.269 -0.9,-4.258 0.2,-8.129 3.32,-11.598 2.03,-1.882 4.53,-2.781 7.46,-2.781 1.33,0 2.58,0.16 3.87,0.551 -0.51,-4.262 0.74,-8.0508 3.87,-11.3321 1.33,-1.2891 3.63,-2.1484 6.95,-2.5 1.64,0 3.24,0.1992 4.69,0.5508 -0.55,-4.0586 0.82,-7.7305 4.14,-11.0508 1.33,-1.1406 3.52,-1.7578 6.64,-1.957 1.88,0 3.52,0.1992 5,0.5469 -0.19,-4.0586 1.37,-7.6602 4.69,-10.7774 1.29,-1.1016 3.32,-1.7617 6.09,-1.9609 2.03,0.1992 3.95,0.5898 5.82,1.1406 -0.19,-4.0703 1.49,-7.6602 4.96,-10.8203 1.68,-0.9024 3.6,-1.3711 5.82,-1.3711 2.03,0 4.07,0.3516 6.1,1.0898 0,-4.0195 1.83,-7.4609 5.5,-10.1914 1.68,-0.9375 3.44,-1.4062 5.28,-1.4062 2.42,0 4.61,0.4687 6.64,1.4062 0.19,-4.0586 2.23,-7.4179 6.09,-9.957 1.49,-0.7422 3.05,-1.1406 4.69,-1.1406 2.58,0 4.96,0.6679 7.19,1.9609 0.39,-4.0625 2.58,-7.3125 6.64,-9.6914 1.29,-0.7383 2.69,-1.1289 4.18,-1.1289 2.73,0.1875 5.31,1.0078 7.73,2.5 0.55,-4.0313 2.93,-7.1914 7.19,-9.4219 0.55,-0.1484 1.02,-0.2695 1.37,-0.2695 -35.94,0.7812 -95.98,1.9492 -180.08,3.6289 -84.3,1.8398 -175.51,3.9531 -273.59,6.332 -98.33,2.418 -186.41,5 -264.22,7.7696 -77.82,2.5781 -128.36,5.039 -151.61,7.4609 -23.24,2.3906 -1.95,4.5 63.91,6.3672 m 982.93,703.5237 c 0,1.289 2.97,5.617 8.87,13.008 6.05,7.339 14.92,9.761 26.52,7.179 0.2,-0.187 0.39,-0.39 0.59,-0.539 8.28,-4.808 10.51,-13.68 6.64,-26.57 -5.55,-12.379 -13.13,-17.539 -22.7,-15.5 -8.86,4.801 -11.33,13.75 -7.46,26.832 1.84,4.457 4.14,8.008 6.92,10.777 -10.16,-7.929 -15.32,-13.629 -15.51,-17.148 -0.9,-1.09 -1.84,-5.153 -2.78,-12.18 -0.74,-6.801 3.32,-13.172 12.19,-19.07 1.13,-0.742 1.37,-1.75 0.82,-3.039 -0.35,-0.742 -1.01,-1.102 -1.91,-1.102 -0.39,0 -0.74,0.078 -1.13,0.281 -10.51,6.989 -15.28,14.719 -14.38,23.239 1.13,8.281 2.23,12.89 3.32,13.832 m 84.38,98.468 c 0.39,2.231 -1.68,6.571 -6.1,13.008 -4.61,6.641 -14.18,2.313 -28.75,-13.008 -2.77,1.098 -17.62,-18.628 -44.57,-59.179 -26.91,-40.781 -48.94,-109.02 -66.09,-204.723 -10.71,-63.277 -26.64,-107.539 -47.85,-132.808 -21.06,-25.239 -40.51,-39.731 -58.4,-43.442 -18.05,-3.668 -27.66,-4.808 -28.75,-3.316 -0.55,0.347 -3.13,0.187 -7.78,-0.551 -4.6,-0.551 -8.08,-3.672 -10.5,-9.371 -0.2,-0.391 -0.36,-0.789 -0.55,-1.141 L 3456.41,289.34 c -1.68,-4.61 -7.86,-18.051 -18.52,-40.391 -10.7,-22.5 -23.44,-45.078 -38.2,-67.777 -14.73,-22.5 -29.07,-36.133 -42.89,-40.942 0,0 0,-0.07 0,-0.269 0,0 0,0.078 0,0.269 H 2327.97 c -1.33,0 -10.43,-0.269 -27.38,-0.82 -17.19,-0.539 -34.22,-1.558 -51.21,-3.039 -17.15,-1.492 -26.37,-3.711 -27.66,-6.641 1.68,-3.519 13.55,-6.101 35.7,-7.742 22.11,-1.679 44.69,-3.16 67.78,-4.449 23.04,-1.289 36.68,-3.199 40.93,-5.82 0.75,-2.578 -11.52,-4.219 -36.79,-4.957 -25.08,-0.942 -50.75,-1.961 -76.92,-3.051 -26.01,-1.289 -40.08,-3.7891 -42.3,-7.461 2.03,-3.3203 17.69,-5.6992 47.03,-7.1914 29.1,-1.4805 58.83,-2.8477 89.06,-4.1367 30.08,-1.1328 47.58,-2.9727 52.58,-5.543 1.64,-2.5781 -3.24,-4.5391 -14.69,-5.8281 -11.6,-1.2813 -23.59,-2.7695 -35.98,-4.4102 -12.3,-1.6797 -19.06,-4.3398 -20.15,-8.0508 1.09,-3.121 9.37,-5.1484 24.88,-6.0898 15.67,-1.0898 31.72,-2.1094 48.13,-3.0117 16.25,-0.7383 26.29,-2.3789 30.15,-5 1.14,-2.5781 -8.08,-4.8789 -27.65,-6.9102 -19.73,-2.0273 -39.85,-4.2187 -60.32,-6.6367 -20.46,-2.582 -31.52,-5.7109 -33.2,-9.3828 1.84,-4.7969 23.63,-8.668 65.31,-11.6367 41.68,-2.93362 91.37,-4.96096 149.11,-6.09377 h 1101.05 c 1.29,-0.19922 2.77,-0.27735 4.41,-0.27735 -1.29,0.19922 -3.39,5.62892 -6.36,16.32812 -3.13,10.7109 -0.36,25.5508 8.32,44.5313 1.29,1.4882 6.91,12.539 16.87,33.2108 9.96,20.859 16.06,42.891 18.24,66.129 0,0.199 0.12,0.27 0.32,0.27 l 31.79,110.671 c 0.55,0.539 1.29,4.137 2.19,10.778 0.94,6.832 -1.44,13.48 -7.19,19.922 -1.44,0.55 -6.64,11.25 -15.47,32.07 -8.86,21.019 -13.08,49.73 -12.73,86.059 0.39,36.128 13.75,77.46 40.12,123.941 39.84,67.5 63.79,124.379 71.91,170.66 8.13,46.289 11.25,90.789 9.42,133.359" /><path
         id="path16"
         style="fill:#bd352e;fill-opacity:1;fill-rule:evenodd;stroke:none"
         d="m 3644.53,189.77 c -0.39,0 -0.74,0.07 -1.13,0.269 L 3471.6,291.02 c -1.09,0.742 -1.37,1.75 -0.82,3.039 0.74,1.101 1.76,1.371 3.05,0.82 L 3645.62,193.91 c 1.14,-0.75 1.37,-1.762 0.83,-3.051 -0.36,-0.55 -1.02,-0.898 -1.92,-1.089" /><path
         id="path18"
         style="fill:#bd352e;fill-opacity:1;fill-rule:evenodd;stroke:none"
         d="m 3648.95,203.012 c -0.36,0 -0.75,0.109 -1.1,0.308 l -171.8,100.981 c -1.13,0.699 -1.4,1.719 -0.82,3.039 0.71,1.101 1.72,1.371 3.01,0.82 l 171.8,-100.969 c 1.09,-0.742 1.41,-1.761 0.86,-3.05 -0.39,-0.551 -1.02,-0.942 -1.95,-1.129" /><path
         id="path20"
         style="fill:#bd352e;fill-opacity:1;fill-rule:evenodd;stroke:none"
         d="m 3668.05,268.59 -169.07,99.34 c -1.25,0.55 -2.26,0.269 -3,-0.86 -0.2,0 -0.28,-0.082 -0.28,-0.269 l -14.96,-48.129 100.16,-58.082 c -0.94,2.031 2.77,7.262 11.05,15.738 8.28,8.512 27.03,8.121 56.17,-1.098 l 17.7,-10.5 c 0.39,-0.199 0.74,-0.281 1.09,-0.281 0.94,0 1.61,0.352 1.96,1.102 0.54,1.289 0.27,2.301 -0.82,3.039" /><path
         id="path22"
         style="fill:#bd372e;fill-opacity:1;fill-rule:nonzero;stroke:none"
         d="m 140.121,797.852 c 0,-7.731 -2.269,-13.672 -6.723,-17.813 -4.378,-4.18 -9.687,-6.25 -15.937,-6.25 -10.941,0 -20.1602,-1.328 -27.6602,-3.91 -10.3125,-4.609 -19.9219,-8.59 -28.75,-12.027 -0.5391,-1.68 -0.8906,-7.653 -1.0899,-17.973 -0.1211,-10.309 -0.1601,-18.899 -0.1601,-25.777 0,-10.622 0,-19.493 0,-26.563 0,-6.988 0.1601,-13.359 0.4687,-19.059 5.3907,4.571 9.5313,7.848 12.3516,9.84 9.1406,6.879 15.0391,10.309 17.6484,10.309 9.461,0 18.0505,-3.859 25.7815,-11.559 7.82,-7.73 11.719,-15.742 11.719,-24.058 0,-4.063 -1.09,-7.891 -3.282,-11.41 -2.187,-3.551 -5,-5.313 -8.437,-5.313 -22.1018,0 -38.551,-5.309 -49.3713,-15.937 -1.8008,-1.801 -3.668,-4.372 -5.6289,-7.813 l -0.461,-62.34 c 0.6211,-1.488 0.9297,-2.621 0.9297,-3.437 1.4493,-6.063 1.8789,-10.633 1.25,-13.75 -2.6093,-14.063 -12.1797,-21.102 -28.75,-21.102 -7.8086,0 -15.2304,3.129 -22.1797,9.379 -6.99996,6.332 -10.941362,12.109 -11.8788625,17.34 L 9.01953,550.66 8.55078,799.262 c 0,5.386 1.96092,9.918 5.93752,13.59 4.0625,3.75 10.082,5.628 18.1328,5.628 1.7578,0 3.0391,0 3.8984,0 4.0703,-0.242 9.6914,-2.351 16.8789,-6.41 1.1329,-0.55 2.543,-1.371 4.2227,-2.5 2.2578,-1.172 9.7578,1.25 22.5,7.192 12.8086,6.008 20.6599,9.058 23.5899,9.058 8.519,0 16.719,-3.09 24.527,-9.218 7.891,-6.172 11.883,-12.422 11.883,-18.75 z m 78.828,-6.403 c 0,-2.308 -0.75,-5.469 -2.187,-9.539 -3.442,-9.68 -5.16,-18.98 -5.16,-27.808 0,-2.301 -1.832,-4.372 -5.473,-6.25 -3.551,-1.872 -7.457,-2.813 -11.719,-2.813 -2.609,-0.309 -4.922,-0.469 -6.871,-0.469 -5.43,0 -9.84,1.129 -13.277,3.442 -4.922,3.437 -7.352,8.976 -7.352,16.718 0,0.93 0.391,1.95 1.25,3.122 2.27,2.808 3.442,12.699 3.442,29.687 0,2.813 1.168,5.231 3.597,7.34 2.5,2.191 7.34,3.601 14.531,4.223 6.25,0 11.95,-1.012 17.18,-2.973 8.012,-3.238 12.039,-8.117 12.039,-14.68 z m 3.903,-79.539 c 0,-3.43 -1.332,-8.551 -3.903,-15.308 -2.621,-6.68 -5.32,-13.512 -8.129,-20.473 V 560.98 c 1.95,-4.3 3.36,-7.89 4.219,-10.781 2.891,-8.871 4.371,-17.148 4.371,-24.847 0,-5.512 -2.769,-9.762 -8.281,-12.813 -5.43,-3.008 -11.559,-4.527 -18.43,-4.527 -9.179,0 -15.629,3.039 -19.379,9.058 -5.121,8.008 -7.66,23.051 -7.66,45.16 l 0.469,116.09 c -0.617,3.75 -0.93,6.758 -0.93,9.059 -0.859,8.832 -1.25,14.422 -1.25,16.723 0.313,2.578 0.461,4.296 0.461,5.16 0.82,5.699 3.442,10.508 7.82,14.367 4.45,3.949 9.411,5.941 14.84,5.941 8.008,0 15.981,-1.679 23.91,-5 7.891,-3.359 11.872,-7.582 11.872,-12.66 z" /><path
         id="path24"
         style="fill:#bd372e;fill-opacity:1;fill-rule:nonzero;stroke:none"
         d="m 384.18,715.352 c 0,-4.614 -3.442,-8.903 -10.309,-12.973 -8.051,-3.43 -15.902,-6.719 -23.601,-9.84 l -61.09,-70.16 c 0.308,-14.609 0.511,-29.141 0.621,-43.59 0.199,-14.488 0.551,-22.309 1.097,-23.437 1.762,-2.813 3.051,-5.122 3.903,-6.872 2.578,-5.429 3.91,-10 3.91,-13.75 0,-7.191 -2.93,-12.929 -8.75,-17.191 -5.742,-4.258 -12.461,-6.41 -20.16,-6.41 -7.731,0 -13.711,1.84 -17.961,5.473 -5.551,4.878 -8.289,12.378 -8.289,22.5 0,2.269 0.16,4.57 0.469,6.878 0,0.5 0.16,1.481 0.468,2.969 l 0.473,146.25 c -1.172,2.262 -2.031,4.102 -2.66,5.461 -1.992,4.891 -3.121,8.051 -3.43,9.539 0,4.879 3.32,8.512 10,10.93 6.75,2.391 14.059,3.601 21.867,3.601 6.883,0 12.5,-0.941 16.883,-2.82 4.449,-1.789 6.719,-5.269 6.719,-10.461 0,-3.437 -1.879,-7.039 -5.629,-10.789 l 0.469,-15.461 39.058,40.93 c 2.891,3.133 5.512,5.512 7.813,7.191 4.57,3.75 9.89,5.629 15.937,5.629 9.141,0 16.801,-2.109 22.973,-6.25 6.129,-4.179 9.219,-9.969 9.219,-17.347 z" /><path
         id="path26"
         style="fill:#bd372e;fill-opacity:1;fill-rule:nonzero;stroke:none"
         d="m 518.48,571.289 c 0,-17.809 -6.332,-32.891 -18.91,-45.16 -12.621,-12.258 -27.34,-18.43 -44.218,-18.43 -16.68,0 -32.731,10 -48.122,30 -13.75,18.121 -19.652,29.879 -17.66,35.313 0.821,2.578 3.668,4.879 8.59,6.867 4.891,1.961 9.891,2.973 15,2.973 15.199,0 25.078,-6.332 29.692,-18.903 4.57,-12.621 10.468,-18.91 17.66,-18.91 3.437,0 5.968,3.121 7.648,9.371 1.762,6.328 2.66,13.289 2.66,20.789 -18.05,12.891 -33.832,25.781 -47.34,38.59 -14.609,14.063 -21.878,30 -21.878,47.813 0,19.136 5.546,35.777 16.718,49.847 11.129,14.063 25.039,21.09 41.719,21.09 15.699,0 27.891,-4.34 36.563,-12.969 8.628,-8.55 12.968,-21.019 12.968,-37.34 0,-1.8 0.981,-5.242 2.969,-10.32 1.133,-2.93 1.723,-5.39 1.723,-7.34 0,-6.871 -2.313,-13.05 -6.883,-18.441 -4.609,-5.43 -10.777,-8.117 -18.59,-8.117 -8.051,0 -13.75,1.789 -17.187,5.468 -4.301,4.571 -6.403,13.321 -6.403,26.25 0,4.25 0,7.418 0,9.532 0,5.386 -0.429,9.289 -1.25,11.718 -0.859,2.5 -2.898,3.75 -6.097,3.75 -4.301,0 -7.153,-2.308 -8.59,-6.878 -1.371,-4.614 -2.032,-11.211 -2.032,-19.84 0,-13.133 11.872,-27.461 35.622,-42.973 23.75,-15.551 35.628,-33.437 35.628,-53.75 z" /><path
         id="path28"
         style="fill:#bd372e;fill-opacity:1;fill-rule:nonzero;stroke:none"
         d="m 668.359,711.91 c 0,-5.738 -1.25,-10.621 -3.75,-14.68 -2.418,-3.992 -6.168,-5.941 -11.25,-5.941 -1.168,-0.309 -4.609,0.313 -10.308,1.871 -5.75,1.57 -10.629,2.07 -14.692,1.57 l -13.75,-6.878 V 559.73 c 0,-4.378 2.34,-10.39 7.032,-17.968 4.769,-7.5 7.187,-13.282 7.187,-17.352 0,-5.699 -2.777,-10.351 -8.277,-13.898 -5.43,-3.633 -12.153,-5.473 -20.16,-5.473 -10.86,0 -18.121,1.723 -21.871,5.16 -7.192,6.563 -10.79,21.321 -10.79,44.371 l 1.25,116.879 c -2.3,-2 -4.289,-3.398 -5.929,-4.219 -5.242,-2.929 -10.711,-4.378 -16.41,-4.378 -6.051,0 -12.93,1.949 -20.621,5.937 -7.7,4.063 -11.571,8.672 -11.571,13.91 0,6.012 3.129,9.879 9.379,11.563 13.75,3.75 22.223,6.437 25.473,8.117 l 20.621,10.32 v 33.59 c 0,1.949 -0.942,4.883 -2.813,8.75 -1.879,3.941 -2.418,7.191 -1.558,9.691 2.258,6.641 5.699,11.911 10.308,15.782 4.571,3.828 10.192,5.777 16.871,5.777 8.008,0 15.161,-2.461 21.411,-7.34 6.328,-4.929 9.531,-10.789 9.531,-17.66 0,-3.668 -2.031,-8.359 -6.094,-14.059 -0.547,-0.941 -1.527,-2.269 -2.969,-3.91 v -18.59 c 4.571,3.43 8.161,5.86 10.782,7.34 8.007,5.2 13.589,7.809 16.718,7.809 8.012,0 14.61,-3.359 19.84,-10 4.262,-5.43 6.41,-11.399 6.41,-17.969 z" /><path
         id="path30"
         style="fill:#bd372e;fill-opacity:1;fill-rule:nonzero;stroke:none"
         d="m 946.84,621.602 c 0,-4.922 -1.18,-9.024 -3.442,-12.34 -2.308,-3.242 -4.609,-6.41 -6.878,-9.532 -8.668,-19.808 -15.86,-34.609 -21.559,-44.378 -17.731,-29.801 -34.34,-44.692 -49.84,-44.692 -29.301,0 -50.473,14.731 -63.601,44.219 -10.309,23.012 -15.469,53.281 -15.469,90.781 0,46.449 6.14,86.879 18.437,121.25 13.75,38.75 32.391,58.129 55.942,58.129 20.941,0 35.98,-6.328 45.16,-18.91 7.691,-10.617 17.262,-35.899 28.75,-75.777 1.75,-3.442 2.89,-6.172 3.43,-8.122 2.269,-6.57 3.171,-11.57 2.66,-15 -1.801,-7.191 -4.61,-12.269 -8.442,-15.16 -3.867,-2.808 -10.937,-4.218 -21.25,-4.218 -7.187,0 -14.179,2.269 -20.937,6.878 -6.68,4.571 -10.582,9.29 -11.711,14.219 -0.629,2.5 0.781,7.653 4.211,15.461 1.449,3.129 1.609,5.391 0.469,6.879 -1.989,9.691 -3.711,16.801 -5.149,21.41 -4.609,14.68 -9.34,22.031 -14.223,22.031 -6.25,0 -12.148,-14.851 -17.66,-44.531 -5.429,-29.687 -8.117,-56.57 -8.117,-80.629 0,-5.742 0.149,-9.769 0.469,-12.031 2.57,-29.809 4.449,-47.578 5.621,-53.277 3.437,-19.301 8.668,-28.91 15.777,-28.91 6.883,0 13.91,9.878 21.102,29.687 2.262,6.563 5.148,16.441 8.59,29.691 -0.231,5.7 0.351,9.879 1.718,12.5 4.571,8.508 15.192,12.809 31.872,12.809 6.57,0 12.191,-1.719 16.878,-5.16 4.762,-3.43 7.192,-7.891 7.192,-13.277 z" /><path
         id="path32"
         style="fill:#bd372e;fill-opacity:1;fill-rule:nonzero;stroke:none"
         d="m 1021.09,526.129 c 0,-6.008 -2.81,-11.168 -8.43,-15.469 -5.63,-4.25 -12.89,-6.398 -21.719,-6.398 -6.062,0 -12.031,1.558 -17.972,4.687 -5.86,3.121 -9.18,7.301 -10,12.5 -0.547,3.942 -0.391,7.531 0.472,10.781 3.118,10.5 4.68,17.219 4.68,20.149 v 21.883 c 0,27.808 -0.109,56.398 -0.312,85.777 -0.11,29.371 -0.309,55.473 -0.618,78.281 -0.242,22.809 -0.312,41.641 -0.312,56.559 l -0.938,13.281 c -0.55,5.512 2.18,9.891 8.118,13.129 6.019,3.32 12.39,5 19.062,5 10.629,0 17.859,-1.328 21.719,-3.91 3.83,-2.609 5.78,-7.34 5.78,-14.219 0,-4.609 -1.01,-10.738 -2.96,-18.43 -0.63,-2.621 -1.68,-6.058 -3.13,-10.32 V 554.879 c 0,-4.609 1.09,-9.609 3.28,-15 2.19,-5.43 3.28,-10 3.28,-13.75 z" /><path
         id="path34"
         style="fill:#bd372e;fill-opacity:1;fill-rule:nonzero;stroke:none"
         d="m 1226.33,542.07 c 0,-3.75 -2.03,-8.519 -6.1,-14.218 -5.11,-7.192 -11.01,-10.782 -17.65,-10.782 -16.06,0 -26.96,7.578 -32.66,22.809 -1.68,4.891 -2.97,12.5 -3.9,22.82 -7.74,-12.929 -14.61,-22.5 -20.63,-28.75 -18.67,-19.57 -39.3,-29.379 -61.87,-29.379 -13.25,0 -24.22,4.961 -32.97,14.84 -8.67,9.891 -12.97,21.719 -12.97,35.469 0,26.961 10.31,48.211 30.94,63.75 7.07,5.391 26.25,14.851 57.5,28.281 20.7,8.949 31.09,18.68 31.09,29.219 0,7.82 -3.36,12.699 -10,14.691 -1.99,0.629 -5.43,0.942 -10.31,0.942 -16.57,0 -31.53,-6.41 -44.85,-19.223 -13.36,-12.738 -22.03,-19.059 -26.09,-19.059 -7.19,0 -12.89,2.11 -17.03,6.399 -4.06,4.262 -6.1,11.141 -6.1,20.633 0,9.758 12.86,20.226 38.6,31.398 27.5,11.961 54.57,17.969 81.25,17.969 22.69,0 36.76,-19.649 42.19,-58.899 2.89,-33.25 5.93,-66.332 9.06,-99.218 1.64,-8.364 4.14,-14.774 7.5,-19.223 3.32,-4.379 5,-7.891 5,-10.469 z m -66.25,86.41 c -17.5,-8.679 -30.59,-15.55 -39.22,-20.628 -26.37,-16.372 -39.53,-30 -39.53,-40.942 0,-3.98 1.4,-7.89 4.22,-11.711 2.89,-3.871 6.4,-5.937 10.47,-6.25 8.51,0 18.67,5.699 30.46,17.18 15.82,15.512 27.04,36.293 33.6,62.351 z" /><path
         id="path36"
         style="fill:#bd372e;fill-opacity:1;fill-rule:nonzero;stroke:none"
         d="m 1366.72,571.289 c 0,-17.809 -6.33,-32.891 -18.91,-45.16 -12.61,-12.258 -27.34,-18.43 -44.22,-18.43 -16.68,0 -32.73,10 -48.12,30 -13.75,18.121 -19.65,29.879 -17.66,35.313 0.82,2.578 3.67,4.879 8.6,6.867 4.88,1.961 9.88,2.973 15,2.973 15.19,0 25.07,-6.332 29.68,-18.903 4.57,-12.621 10.47,-18.91 17.66,-18.91 3.44,0 5.98,3.121 7.66,9.371 1.75,6.328 2.65,13.289 2.65,20.789 -18.04,12.891 -33.83,25.781 -47.34,38.59 -14.61,14.063 -21.88,30 -21.88,47.813 0,19.136 5.55,35.777 16.72,49.847 11.14,14.063 25.04,21.09 41.72,21.09 15.7,0 27.89,-4.34 36.56,-12.969 8.64,-8.55 12.97,-21.019 12.97,-37.34 0,-1.8 0.98,-5.242 2.97,-10.32 1.13,-2.93 1.72,-5.39 1.72,-7.34 0,-6.871 -2.3,-13.05 -6.88,-18.441 -4.6,-5.43 -10.78,-8.117 -18.59,-8.117 -8.05,0 -13.75,1.789 -17.19,5.468 -4.29,4.571 -6.4,13.321 -6.4,26.25 0,4.25 0,7.418 0,9.532 0,5.386 -0.43,9.289 -1.25,11.718 -0.86,2.5 -2.89,3.75 -6.1,3.75 -4.29,0 -7.14,-2.308 -8.59,-6.878 -1.37,-4.614 -2.03,-11.211 -2.03,-19.84 0,-13.133 11.87,-27.461 35.62,-42.973 23.75,-15.551 35.63,-33.437 35.63,-53.75 z" /><path
         id="path38"
         style="fill:#bd372e;fill-opacity:1;fill-rule:nonzero;stroke:none"
         d="m 1503.63,571.289 c 0,-17.809 -6.33,-32.891 -18.9,-45.16 -12.62,-12.258 -27.35,-18.43 -44.22,-18.43 -16.68,0 -32.74,10 -48.13,30 -13.75,18.121 -19.65,29.879 -17.65,35.313 0.82,2.578 3.67,4.879 8.59,6.867 4.88,1.961 9.88,2.973 15,2.973 15.2,0 25.08,-6.332 29.69,-18.903 4.57,-12.621 10.47,-18.91 17.65,-18.91 3.44,0 5.98,3.121 7.66,9.371 1.76,6.328 2.66,13.289 2.66,20.789 -18.05,12.891 -33.83,25.781 -47.35,38.59 -14.61,14.063 -21.87,30 -21.87,47.813 0,19.136 5.54,35.777 16.72,49.847 11.13,14.063 25.04,21.09 41.72,21.09 15.7,0 27.89,-4.34 36.56,-12.969 8.63,-8.55 12.97,-21.019 12.97,-37.34 0,-1.8 0.97,-5.242 2.97,-10.32 1.13,-2.93 1.71,-5.39 1.71,-7.34 0,-6.871 -2.3,-13.05 -6.87,-18.441 -4.61,-5.43 -10.78,-8.117 -18.59,-8.117 -8.05,0 -13.75,1.789 -17.19,5.468 -4.3,4.571 -6.41,13.321 -6.41,26.25 0,4.25 0,7.418 0,9.532 0,5.386 -0.43,9.289 -1.25,11.718 -0.86,2.5 -2.89,3.75 -6.09,3.75 -4.3,0 -7.15,-2.308 -8.6,-6.878 -1.36,-4.614 -2.03,-11.211 -2.03,-19.84 0,-13.133 11.88,-27.461 35.63,-42.973 23.75,-15.551 35.62,-33.437 35.62,-53.75 z" /><path
         id="path40"
         style="fill:#bd372e;fill-opacity:1;fill-rule:nonzero;stroke:none"
         d="m 1793.91,781.91 c 0,-25.738 -12.11,-60.699 -36.25,-104.84 -24.07,-44.179 -42.97,-66.25 -56.72,-66.25 -6.25,0 -9.96,0.391 -11.1,1.25 -0.62,1.758 -1.05,3.2 -1.25,4.379 l -0.47,-66.719 5.63,-24.07 c 0,-4.609 -2.19,-8.039 -6.56,-10.461 -4.3,-2.5 -9.46,-3.75 -15.47,-3.75 -14.06,0 -24.06,2.891 -30,8.59 -4.06,4.063 -6.68,9.922 -7.81,17.66 0,1.442 1.87,5.352 5.62,11.711 0.51,0.82 1.33,2.231 2.5,4.219 l -6.87,243.441 c -0.55,0.821 -0.94,1.95 -1.25,3.442 -0.32,1.636 -0.59,2.968 -0.79,3.898 -1.17,2.82 0,5.942 3.44,9.379 4.57,4.57 11.45,6.871 20.63,6.871 1.95,0.32 3.51,0.469 4.69,0.469 1.95,0 3.82,-0.149 5.62,-0.469 1.95,-0.308 5.98,-1.172 12.03,-2.5 11.95,3.949 23.32,7.66 34.06,11.102 10.82,3.437 18.52,5.148 23.13,5.148 15.19,0 28.51,-5.582 40,-16.711 11.44,-11.179 17.19,-23.09 17.19,-35.789 z m -52.03,-4.68 c 0,5.192 -0.75,8.469 -2.19,9.84 -1.49,1.45 -3.75,2.34 -6.88,2.66 -6.56,0 -14.45,-3.05 -23.59,-9.07 -9.18,-6.051 -17.11,-13.672 -23.75,-22.808 l 0.94,-85.942 c 8.82,5.078 20.31,20.391 34.37,45.942 14.06,25.507 21.1,45.308 21.1,59.378 z" /><path
         id="path42"
         style="fill:#bd372e;fill-opacity:1;fill-rule:nonzero;stroke:none"
         d="m 1871.76,791.449 c 0,-2.308 -0.74,-5.469 -2.19,-9.539 -3.44,-9.68 -5.16,-18.98 -5.16,-27.808 0,-2.301 -1.83,-4.372 -5.46,-6.25 -3.56,-1.872 -7.47,-2.813 -11.72,-2.813 -2.62,-0.309 -4.93,-0.469 -6.88,-0.469 -5.43,0 -9.84,1.129 -13.28,3.442 -4.92,3.437 -7.34,8.976 -7.34,16.718 0,0.93 0.39,1.95 1.25,3.122 2.26,2.808 3.43,12.699 3.43,29.687 0,2.813 1.18,5.231 3.6,7.34 2.5,2.191 7.34,3.601 14.53,4.223 6.25,0 11.95,-1.012 17.19,-2.973 8,-3.238 12.03,-8.117 12.03,-14.68 z m 3.9,-79.539 c 0,-3.43 -1.32,-8.551 -3.9,-15.308 -2.62,-6.68 -5.31,-13.512 -8.13,-20.473 V 560.98 c 1.96,-4.3 3.36,-7.89 4.22,-10.781 2.89,-8.871 4.38,-17.148 4.38,-24.847 0,-5.512 -2.78,-9.762 -8.28,-12.813 -5.43,-3.008 -11.57,-4.527 -18.44,-4.527 -9.18,0 -15.63,3.039 -19.38,9.058 -5.11,8.008 -7.65,23.051 -7.65,45.16 l 0.47,116.09 c -0.63,3.75 -0.94,6.758 -0.94,9.059 -0.86,8.832 -1.25,14.422 -1.25,16.723 0.31,2.578 0.47,4.296 0.47,5.16 0.82,5.699 3.43,10.508 7.81,14.367 4.45,3.949 9.41,5.941 14.84,5.941 8.01,0 15.98,-1.679 23.91,-5 7.89,-3.359 11.87,-7.582 11.87,-12.66 z" /><path
         id="path44"
         style="fill:#bd372e;fill-opacity:1;fill-rule:nonzero;stroke:none"
         d="m 2077.93,542.07 c 0,-3.75 -2.03,-8.519 -6.09,-14.218 -5.12,-7.192 -11.02,-10.782 -17.66,-10.782 -16.06,0 -26.95,7.578 -32.66,22.809 -1.68,4.891 -2.97,12.5 -3.9,22.82 -7.74,-12.929 -14.61,-22.5 -20.63,-28.75 -18.67,-19.57 -39.29,-29.379 -61.87,-29.379 -13.24,0 -24.22,4.961 -32.97,14.84 -8.67,9.891 -12.97,21.719 -12.97,35.469 0,26.961 10.31,48.211 30.94,63.75 7.07,5.391 26.25,14.851 57.5,28.281 20.7,8.949 31.09,18.68 31.09,29.219 0,7.82 -3.36,12.699 -10,14.691 -1.99,0.629 -5.43,0.942 -10.31,0.942 -16.56,0 -31.52,-6.41 -44.85,-19.223 -13.35,-12.738 -22.03,-19.059 -26.09,-19.059 -7.19,0 -12.89,2.11 -17.03,6.399 -4.06,4.262 -6.09,11.141 -6.09,20.633 0,9.758 12.85,20.226 38.59,31.398 27.5,11.961 54.57,17.969 81.25,17.969 22.7,0 36.76,-19.649 42.19,-58.899 2.89,-33.25 5.93,-66.332 9.06,-99.218 1.64,-8.364 4.14,-14.774 7.5,-19.223 3.32,-4.379 5,-7.891 5,-10.469 z m -66.25,86.41 c -17.5,-8.679 -30.59,-15.55 -39.22,-20.628 -26.37,-16.372 -39.53,-30 -39.53,-40.942 0,-3.98 1.41,-7.89 4.22,-11.711 2.89,-3.871 6.4,-5.937 10.47,-6.25 8.51,0 18.67,5.699 30.47,17.18 15.82,15.512 27.03,36.293 33.59,62.351 z" /><path
         id="path46"
         style="fill:#bd372e;fill-opacity:1;fill-rule:nonzero;stroke:none"
         d="m 2265.66,544.57 c 0,-6.25 -3.04,-11.09 -9.06,-14.531 -5.94,-3.437 -14.22,-5.16 -24.84,-5.16 -11.49,0 -18.44,1.601 -20.94,4.851 -2.42,3.321 -3.59,9.879 -3.59,19.68 0,30.078 -0.75,54.891 -2.19,74.379 -1.49,19.449 -3.05,29.371 -4.69,29.691 -1.17,0 -9.06,-15.941 -23.75,-47.82 -14.61,-31.789 -21.87,-50.43 -21.87,-55.93 -0.86,-2.5 -1.25,-4.929 -1.25,-7.191 0,-2.309 0.35,-5.269 1.09,-8.91 0.7,-3.551 1.09,-5.738 1.09,-6.559 0,-2.929 -0.74,-5.55 -2.18,-7.808 -2.62,-4.883 -5.63,-8.91 -9.07,-12.032 -3.43,-3.128 -7.46,-4.691 -12.03,-4.691 -12.93,0 -21.79,4.02 -26.56,12.031 -4.69,8.008 -7.03,21.91 -7.03,41.719 v 138.91 c -0.24,5.93 -0.31,10.352 -0.31,13.281 0,7.379 1.13,13.2 3.43,17.5 2.27,4.372 6.96,6.559 14.07,6.559 8.94,0 17.26,-3.199 25,-9.527 6.56,-5.434 9.84,-9.852 9.84,-13.282 0,-3.992 -1.17,-10.429 -3.44,-19.378 -0.23,-1.372 -0.78,-3.204 -1.72,-5.473 v -51.25 c 8.01,20.32 15.2,35.512 21.57,45.633 18.94,30.617 39.88,45.937 62.81,45.937 11.13,0 19.14,-14.34 24.06,-42.969 3.44,-20.628 5.16,-47 5.16,-79.07 0,-9.488 -0.12,-17.422 -0.31,-23.75 -0.12,-6.25 -0.32,-11.558 -0.63,-15.93 1.76,-2 2.89,-3.71 3.44,-5.16 2.58,-4.8 3.9,-9.371 3.9,-13.75 z" /><path
         id="path48"
         style="fill:#bd372e;fill-opacity:1;fill-rule:nonzero;stroke:none"
         d="m 2416.05,711.91 c 0,-5.738 -1.25,-10.621 -3.75,-14.68 -2.42,-3.992 -6.17,-5.941 -11.25,-5.941 -1.17,-0.309 -4.6,0.313 -10.31,1.871 -5.74,1.57 -10.62,2.07 -14.69,1.57 l -13.75,-6.878 V 559.73 c 0,-4.378 2.35,-10.39 7.04,-17.968 4.76,-7.5 7.18,-13.282 7.18,-17.352 0,-5.699 -2.77,-10.351 -8.28,-13.898 -5.43,-3.633 -12.15,-5.473 -20.15,-5.473 -10.86,0 -18.13,1.723 -21.88,5.16 -7.19,6.563 -10.78,21.321 -10.78,44.371 l 1.25,116.879 c -2.3,-2 -4.3,-3.398 -5.94,-4.219 -5.23,-2.929 -10.7,-4.378 -16.4,-4.378 -6.06,0 -12.93,1.949 -20.63,5.937 -7.69,4.063 -11.56,8.672 -11.56,13.91 0,6.012 3.12,9.879 9.37,11.563 13.75,3.75 22.23,6.437 25.47,8.117 l 20.63,10.32 v 33.59 c 0,1.949 -0.94,4.883 -2.82,8.75 -1.87,3.941 -2.42,7.191 -1.56,9.691 2.27,6.641 5.71,11.911 10.31,15.782 4.57,3.828 10.2,5.777 16.88,5.777 8.01,0 15.16,-2.461 21.41,-7.34 6.32,-4.929 9.53,-10.789 9.53,-17.66 0,-3.668 -2.03,-8.359 -6.1,-14.059 -0.54,-0.941 -1.52,-2.269 -2.97,-3.91 v -18.59 c 4.58,3.43 8.17,5.86 10.79,7.34 8,5.2 13.59,7.809 16.71,7.809 8.01,0 14.61,-3.359 19.85,-10 4.26,-5.43 6.4,-11.399 6.4,-17.969 z" /><path
         id="path50"
         style="fill:#bd372e;fill-opacity:1;fill-rule:nonzero;stroke:none"
         d="m 2481.48,791.449 c 0,-2.308 -0.74,-5.469 -2.18,-9.539 -3.44,-9.68 -5.16,-18.98 -5.16,-27.808 0,-2.301 -1.84,-4.372 -5.47,-6.25 -3.55,-1.872 -7.46,-2.813 -11.72,-2.813 -2.61,-0.309 -4.92,-0.469 -6.87,-0.469 -5.43,0 -9.85,1.129 -13.28,3.442 -4.92,3.437 -7.35,8.976 -7.35,16.718 0,0.93 0.39,1.95 1.25,3.122 2.27,2.808 3.44,12.699 3.44,29.687 0,2.813 1.17,5.231 3.59,7.34 2.5,2.191 7.35,3.601 14.54,4.223 6.25,0 11.95,-1.012 17.18,-2.973 8.01,-3.238 12.03,-8.117 12.03,-14.68 z m 3.91,-79.539 c 0,-3.43 -1.33,-8.551 -3.91,-15.308 -2.61,-6.68 -5.31,-13.512 -8.12,-20.473 V 560.98 c 1.95,-4.3 3.36,-7.89 4.22,-10.781 2.89,-8.871 4.37,-17.148 4.37,-24.847 0,-5.512 -2.77,-9.762 -8.28,-12.813 -5.43,-3.008 -11.56,-4.527 -18.44,-4.527 -9.18,0 -15.62,3.039 -19.37,9.058 -5.12,8.008 -7.66,23.051 -7.66,45.16 l 0.47,116.09 c -0.62,3.75 -0.94,6.758 -0.94,9.059 -0.85,8.832 -1.25,14.422 -1.25,16.723 0.32,2.578 0.47,4.296 0.47,5.16 0.82,5.699 3.44,10.508 7.82,14.367 4.45,3.949 9.41,5.941 14.84,5.941 8.01,0 15.98,-1.679 23.91,-5 7.89,-3.359 11.87,-7.582 11.87,-12.66 z" /><path
         id="path52"
         style="fill:#bd372e;fill-opacity:1;fill-rule:nonzero;stroke:none"
         d="m 2674.69,544.57 c 0,-6.25 -3.05,-11.09 -9.07,-14.531 -5.93,-3.437 -14.21,-5.16 -24.84,-5.16 -11.48,0 -18.44,1.601 -20.94,4.851 -2.42,3.321 -3.59,9.879 -3.59,19.68 0,30.078 -0.74,54.891 -2.19,74.379 -1.48,19.449 -3.04,29.371 -4.68,29.691 -1.18,0 -9.07,-15.941 -23.76,-47.82 -14.6,-31.789 -21.87,-50.43 -21.87,-55.93 -0.86,-2.5 -1.25,-4.929 -1.25,-7.191 0,-2.309 0.35,-5.269 1.09,-8.91 0.71,-3.551 1.1,-5.738 1.1,-6.559 0,-2.929 -0.74,-5.55 -2.19,-7.808 -2.62,-4.883 -5.62,-8.91 -9.06,-12.032 -3.44,-3.128 -7.46,-4.691 -12.03,-4.691 -12.93,0 -21.8,4.02 -26.57,12.031 -4.68,8.008 -7.03,21.91 -7.03,41.719 v 138.91 c -0.23,5.93 -0.31,10.352 -0.31,13.281 0,7.379 1.13,13.2 3.44,17.5 2.26,4.372 6.95,6.559 14.06,6.559 8.95,0 17.27,-3.199 25,-9.527 6.56,-5.434 9.84,-9.852 9.84,-13.282 0,-3.992 -1.17,-10.429 -3.43,-19.378 -0.24,-1.372 -0.79,-3.204 -1.72,-5.473 v -51.25 c 8.01,20.32 15.19,35.512 21.56,45.633 18.95,30.617 39.88,45.937 62.81,45.937 11.14,0 19.14,-14.34 24.06,-42.969 3.44,-20.628 5.16,-47 5.16,-79.07 0,-9.488 -0.12,-17.422 -0.31,-23.75 -0.12,-6.25 -0.31,-11.558 -0.63,-15.93 1.76,-2 2.89,-3.71 3.44,-5.16 2.58,-4.8 3.91,-9.371 3.91,-13.75 z" /><path
         id="path54"
         style="fill:#bd372e;fill-opacity:1;fill-rule:nonzero;stroke:none"
         d="m 2824.14,495.98 c 0,-14.261 -3.87,-25.242 -11.56,-32.968 -7.74,-7.813 -17.89,-11.723 -30.47,-11.723 -9.49,0 -18.44,1.25 -26.88,3.75 -8.43,2.422 -16.99,6.871 -25.62,13.441 -6.06,2.11 -10.23,3.551 -12.5,4.372 -4.3,1.988 -6.41,6.988 -6.41,15 0,5.238 2.85,8.988 8.6,11.25 5.7,2.308 12.18,3.437 19.37,3.437 13.44,0 22.85,-3.988 28.28,-12.027 2.89,-4.063 6.33,-6.102 10.32,-6.102 3.75,0 6.4,1.641 7.96,4.852 1.65,3.117 2.5,7.109 2.5,11.867 l -1.87,57.66 c -4.61,-9.488 -8.59,-16.519 -12.03,-21.09 -10.86,-14.301 -22.89,-21.41 -36.1,-21.41 -14.92,0 -27.34,11.871 -37.34,35.621 -8.87,21.57 -13.28,45.039 -13.28,70.469 0,27.82 4.26,51.492 12.81,71.101 10.31,23.43 25.2,35.149 44.69,35.149 12.07,0 21.72,-3.117 28.91,-9.367 2.26,-2.114 4.68,-5.434 7.18,-10 -0.23,2.578 -0.31,4.449 -0.31,5.617 0,5.199 0.98,9.223 2.97,12.031 3.12,4.57 8.67,6.879 16.72,6.879 4.37,0 8.47,-1.488 12.34,-4.379 3.83,-2.808 6.76,-6.09 8.75,-9.84 0,-36.679 0.2,-68.281 0.63,-94.84 0.39,-26.492 0.82,-50.941 1.25,-73.441 0.5,-22.5 0.86,-40.937 1.09,-55.309 z m -48.12,128.122 c 0,16.949 -1.72,31.168 -5.16,42.66 -4.61,15.508 -11.06,22.379 -19.38,20.617 -5.74,-1.168 -11.32,-8.59 -16.71,-22.34 -5.43,-13.75 -8.13,-27.418 -8.13,-40.937 0,-18.364 0.82,-31.954 2.5,-40.782 2.89,-14.922 8.05,-22.34 15.47,-22.34 6.33,0 13.16,7.11 20.47,21.399 7.26,14.383 10.94,28.281 10.94,41.723 z" /><path
         id="path56"
         style="fill:#bd372e;fill-opacity:1;fill-rule:nonzero;stroke:none"
         d="m 3113.4,566.91 c 0,-14.289 -6.02,-23.551 -17.97,-27.808 -5.43,-2.114 -14.45,-3.122 -27.03,-3.122 -11.25,0 -21.33,-4.031 -30.16,-12.031 -8.86,-8.008 -18.59,-12.039 -29.22,-12.039 -7.81,0 -15.54,3.68 -23.12,10.942 -7.5,7.378 -11.25,13.628 -11.25,18.75 0,3.128 1.72,7.109 5.15,12.027 3.44,4.891 5.16,9.609 5.16,14.223 l -15.94,227.968 c -1.17,1.129 -2.03,2.11 -2.65,2.969 -3.67,4.883 -5.47,9.141 -5.47,12.813 0.19,4.57 3.2,8.597 9.06,12.027 5.94,3.441 12.19,5.16 18.75,5.16 8.63,0 17.58,-2.461 26.88,-7.34 9.37,-4.808 14.06,-10.469 14.06,-17.039 0,-2.301 -1.17,-5.148 -3.44,-8.59 -0.62,-1.172 -1.8,-2.769 -3.44,-4.84 l 13.75,-207.191 38.75,16.25 c 3.95,1.441 7.97,2.031 12.03,1.723 5.4,0 11.1,-3.75 17.04,-11.25 6.01,-7.422 9.06,-15.282 9.06,-23.602 z" /><path
         id="path58"
         style="fill:#bd372e;fill-opacity:1;fill-rule:nonzero;stroke:none"
         d="m 3271.29,566.91 c 0,-14.289 -6.02,-23.551 -17.97,-27.808 -5.43,-2.114 -14.45,-3.122 -27.03,-3.122 -11.25,0 -21.33,-4.031 -30.16,-12.031 -8.86,-8.008 -18.59,-12.039 -29.22,-12.039 -7.81,0 -15.54,3.68 -23.12,10.942 -7.5,7.378 -11.25,13.628 -11.25,18.75 0,3.128 1.72,7.109 5.16,12.027 3.43,4.891 5.15,9.609 5.15,14.223 l -15.94,227.968 c -1.17,1.129 -2.03,2.11 -2.65,2.969 -3.67,4.883 -5.47,9.141 -5.47,12.813 0.19,4.57 3.2,8.597 9.06,12.027 5.94,3.441 12.19,5.16 18.75,5.16 8.63,0 17.58,-2.461 26.88,-7.34 9.37,-4.808 14.06,-10.469 14.06,-17.039 0,-2.301 -1.17,-5.148 -3.44,-8.59 -0.62,-1.172 -1.8,-2.769 -3.44,-4.84 l 13.75,-207.191 38.75,16.25 c 3.95,1.441 7.97,2.031 12.04,1.723 5.39,0 11.09,-3.75 17.03,-11.25 6.01,-7.422 9.06,-15.282 9.06,-23.602 z" /><path
         id="path60"
         style="fill:#bd372e;fill-opacity:1;fill-rule:nonzero;stroke:none"
         d="m 3436.99,621.602 c 0,-4.922 -1.17,-9.024 -3.44,-12.34 -2.3,-3.242 -4.6,-6.41 -6.87,-9.532 -8.67,-19.808 -15.86,-34.609 -21.56,-44.378 -17.74,-29.801 -34.34,-44.692 -49.85,-44.692 -29.29,0 -50.47,14.731 -63.59,44.219 -10.31,23.012 -15.47,53.281 -15.47,90.781 0,46.449 6.13,86.879 18.44,121.25 13.75,38.75 32.38,58.129 55.94,58.129 20.93,0 35.97,-6.328 45.15,-18.91 7.7,-10.617 17.27,-35.899 28.75,-75.777 1.76,-3.442 2.89,-6.172 3.44,-8.122 2.27,-6.57 3.16,-11.57 2.66,-15 -1.8,-7.191 -4.61,-12.269 -8.44,-15.16 -3.87,-2.808 -10.94,-4.218 -21.25,-4.218 -7.19,0 -14.18,2.269 -20.94,6.878 -6.68,4.571 -10.58,9.29 -11.72,14.219 -0.62,2.5 0.78,7.653 4.22,15.461 1.45,3.129 1.6,5.391 0.47,6.879 -1.99,9.691 -3.71,16.801 -5.16,21.41 -4.61,14.68 -9.33,22.031 -14.22,22.031 -6.25,0 -12.14,-14.851 -17.65,-44.531 -5.43,-29.687 -8.13,-56.57 -8.13,-80.629 0,-5.742 0.16,-9.769 0.47,-12.031 2.58,-29.809 4.46,-47.578 5.63,-53.277 3.43,-19.301 8.67,-28.91 15.78,-28.91 6.87,0 13.9,9.878 21.09,29.687 2.27,6.563 5.16,16.441 8.6,29.691 -0.24,5.7 0.35,9.879 1.71,12.5 4.57,8.508 15.2,12.809 31.88,12.809 6.56,0 12.19,-1.719 16.87,-5.16 4.77,-3.43 7.19,-7.891 7.19,-13.277 z" /><path
         id="path62"
         style="fill:#010101;fill-opacity:1;fill-rule:nonzero;stroke:none"
         d="m 607.73,172.27 c 0,-4.301 -3.082,-7.5 -9.21,-9.692 -1.059,-0.238 -2.579,-0.629 -4.54,-1.25 l 0.629,-64.3788 c 0.942,-2.1094 1.602,-3.8281 2.032,-5.1484 1.25,-3.75 1.879,-7.0313 1.879,-9.8516 0,-3.039 -1.532,-5.539 -4.54,-7.5 -2.929,-1.8711 -6.089,-2.8086 -9.531,-2.8086 -7.109,0 -13.508,1.168 -19.219,3.5899 -7.929,3.2109 -12.3,8.0078 -13.121,14.3789 -0.429,2.3789 0.7,6.289 3.442,11.7186 2.808,5.391 4.219,8.832 4.219,10.313 v 47.808 l -37.04,-7.808 0.629,-67.8129 c 0.821,-2.5 1.332,-4.4492 1.563,-5.7773 1.25,-4.9297 1.879,-8.4024 1.879,-10.4727 0,-4.2578 -1.371,-7.3789 -4.071,-9.3789 -1.992,-1.25 -5.308,-2.2578 -10,-3.1211 -3.859,-0.6289 -9.019,0.8633 -15.46,4.3711 -6.372,3.4414 -9.54,7 -9.54,10.6289 0,1.0117 0.36,2.543 1.098,4.5313 0.192,0.6211 0.512,1.5625 0.942,2.8125 l -0.629,73.5981 c -2.192,3 -3.832,5.351 -4.84,7.031 -3.442,5.82 -5.16,10.777 -5.16,14.84 0,1.879 2.031,4.73 6.089,8.589 0.629,0.629 1.649,1.571 3.129,2.821 v 91.25 c -0.429,1.008 -0.629,1.75 -0.629,2.179 -0.621,2.391 -0.929,3.989 -0.929,4.848 0,4.453 2.07,7.422 6.25,8.902 4.14,1.571 9.57,2.348 16.25,2.348 6.32,0 11.871,-1.207 16.558,-3.598 4.692,-2.3 7.032,-5.89 7.032,-10.781 0,-3.668 -1.371,-7.929 -4.063,-12.808 -0.937,-1.563 -2.348,-3.59 -4.219,-6.09 -0.23,-0.242 -0.429,-8.403 -0.629,-24.531 -0.23,-16.18 -0.621,-32.309 -1.25,-48.442 l 36.411,7.344 0.629,79.687 c -0.629,1.641 -1.059,2.891 -1.25,3.75 -1.059,3.629 -1.571,6.25 -1.571,7.813 0.391,4.258 2.231,7.808 5.473,10.629 3.316,2.89 7.109,4.371 11.406,4.371 6.641,0 13.281,-2.152 19.844,-6.402 6.637,-4.301 10,-8.559 10,-12.821 0,-0.621 -1.723,-4.179 -5.152,-10.621 -1.059,-2.109 -2.782,-5.277 -5.161,-9.527 l 0.621,-67.5 c 3.008,-3.25 5.239,-5.711 6.719,-7.352 4.692,-6.051 7.031,-10.929 7.031,-14.679 z M 718.051,98.9805 c 0,-8.5508 -5.281,-16.8321 -15.781,-24.8399 -10.551,-8.0117 -22.43,-12.0312 -35.629,-12.0312 -17.301,0 -30.121,7.3398 -38.442,22.0312 -7.301,12.8086 -10.929,30.5074 -10.929,53.1294 0,29.058 5.66,51.558 17.031,67.5 10.39,14.761 23.937,22.179 40.621,22.179 10.199,0 18.629,-3.238 25.308,-9.679 7.391,-7.192 11.098,-17.622 11.098,-31.25 0,-14.18 -5.117,-28.09 -15.308,-41.719 -11.571,-15.321 -26.641,-26.41 -45.161,-33.281 0.192,-4.692 0.7,-8.211 1.563,-10.469 2.808,-7.3127 8.359,-10.9416 16.719,-10.9416 9.14,0 15.699,4.6094 19.687,13.9106 3.942,9.25 7.652,14.101 11.094,14.531 3.316,0 6.797,-1.371 10.469,-4.071 5.078,-3.859 7.66,-8.859 7.66,-14.9995 z m -33.91,86.2495 c 0,3.008 -0.743,5.551 -2.192,7.661 -1.48,2.187 -3.898,3.281 -7.34,3.281 -8.359,0 -14.769,-5.582 -19.218,-16.723 -4.493,-11.051 -6.719,-24.801 -6.719,-41.25 5.508,1.332 12.348,6.289 20.469,14.852 10,10.621 15,21.328 15,32.179 z" /><path
         id="path64"
         style="fill:#010101;fill-opacity:1;fill-rule:nonzero;stroke:none"
         d="m 839.449,213.52 c 0,-3.442 -2.57,-6.68 -7.648,-9.692 -6.063,-2.5 -11.961,-4.957 -17.66,-7.348 l -45.469,-52.179 c 0.199,-10.86 0.348,-21.68 0.469,-32.5 0.078,-10.75 0.39,-16.5315 0.937,-17.3518 1.25,-2.1797 2.192,-3.8984 2.813,-5.1484 1.879,-4.0703 2.808,-7.461 2.808,-10.1602 0,-5.4297 -2.148,-9.6914 -6.398,-12.8125 -4.18,-3.207 -9.18,-4.8476 -15,-4.8476 -5.75,0 -10.242,1.4101 -13.442,4.2187 -4.058,3.5196 -6.089,9.0703 -6.089,16.5703 0,1.6407 0.07,3.3516 0.308,5.1524 0,0.3867 0.082,1.1289 0.313,2.1875 l 0.308,108.7496 c -0.859,1.762 -1.48,3.161 -1.871,4.219 -1.488,3.633 -2.308,5.973 -2.5,7.031 0,3.629 2.5,6.332 7.5,8.121 5,1.879 10.352,2.821 16.094,2.821 5.078,0 9.297,-0.75 12.656,-2.192 3.32,-1.371 5,-3.98 5,-7.808 0,-2.5 -1.406,-5.16 -4.219,-7.973 l 0.313,-11.558 29.219,30.46 c 2.07,2.27 3.988,4.11 5.781,5.469 3.316,2.699 7.226,4.071 11.719,4.071 6.879,0 12.578,-1.571 17.187,-4.692 4.57,-3.047 6.871,-7.308 6.871,-12.808 z" /><path
         id="path66"
         style="fill:#010101;fill-opacity:1;fill-rule:nonzero;stroke:none"
         d="m 949.301,98.9805 c 0,-8.5508 -5.281,-16.8321 -15.781,-24.8399 -10.551,-8.0117 -22.43,-12.0312 -35.629,-12.0312 -17.301,0 -30.121,7.3398 -38.442,22.0312 -7.301,12.8086 -10.929,30.5074 -10.929,53.1294 0,29.058 5.66,51.558 17.031,67.5 10.39,14.761 23.937,22.179 40.621,22.179 10.199,0 18.629,-3.238 25.308,-9.679 7.391,-7.192 11.098,-17.622 11.098,-31.25 0,-14.18 -5.117,-28.09 -15.308,-41.719 -11.571,-15.321 -26.649,-26.41 -45.161,-33.281 0.192,-4.692 0.7,-8.211 1.563,-10.469 2.808,-7.3127 8.359,-10.9416 16.719,-10.9416 9.14,0 15.699,4.6094 19.687,13.9106 3.942,9.25 7.652,14.101 11.094,14.531 3.316,0 6.797,-1.371 10.469,-4.071 5.078,-3.859 7.66,-8.859 7.66,-14.9995 z m -33.91,86.2495 c 0,3.008 -0.743,5.551 -2.192,7.661 -1.48,2.187 -3.898,3.281 -7.34,3.281 -8.359,0 -14.769,-5.582 -19.218,-16.723 -4.493,-11.051 -6.719,-24.801 -6.719,-41.25 5.508,1.332 12.348,6.289 20.469,14.852 10,10.621 15,21.328 15,32.179 z" /><path
         id="path68"
         style="fill:#010101;fill-opacity:1;fill-rule:nonzero;stroke:none"
         d="m 1152.11,210.859 c 0,-4.3 -0.94,-7.929 -2.81,-10.937 -1.8,-2.934 -4.53,-4.371 -8.28,-4.371 -0.94,-0.242 -3.56,0.23 -7.82,1.398 -4.29,1.141 -7.89,1.492 -10.78,1.102 l -10.31,-5 V 97.5781 c 0,-3.1289 1.76,-7.5781 5.31,-13.2773 3.52,-5.6289 5.31,-9.961 5.31,-12.9727 0,-4.2578 -2.03,-7.6992 -6.09,-10.3086 -4.06,-2.6992 -9.06,-4.0703 -15,-4.0703 -8.12,0 -13.59,1.3321 -16.41,3.9102 -5.31,4.9219 -7.96,15.8594 -7.96,32.9687 l 0.93,87.0309 c -1.68,-1.558 -3.12,-2.66 -4.37,-3.281 -3.87,-2.109 -7.93,-3.129 -12.19,-3.129 -4.49,0 -9.65,1.449 -15.47,4.379 -5.7,3.012 -8.59,6.442 -8.59,10.313 0,4.449 2.34,7.339 7.03,8.589 10.19,2.821 16.48,4.848 18.91,6.098 l 15.31,7.652 v 25 c 0,1.45 -0.71,3.641 -2.03,6.571 -1.37,2.89 -1.72,5.308 -1.1,7.179 1.64,4.891 4.22,8.79 7.66,11.719 3.44,2.891 7.58,4.379 12.5,4.379 5.94,0 11.25,-1.84 15.94,-5.469 4.68,-3.668 7.03,-8.05 7.03,-13.129 0,-2.808 -1.49,-6.359 -4.38,-10.621 -0.43,-0.629 -1.21,-1.558 -2.34,-2.808 v -13.75 c 3.44,2.5 6.09,4.289 7.97,5.469 6.01,3.75 10.19,5.621 12.5,5.621 6.01,0 10.97,-2.461 14.84,-7.34 3.13,-4.071 4.69,-8.563 4.69,-13.442 z" /><path
         id="path70"
         style="fill:#010101;fill-opacity:1;fill-rule:nonzero;stroke:none"
         d="m 1258.83,144.609 c 0,-23.05 -3.99,-41.879 -11.88,-56.5582 -9.37,-17.5 -23.36,-26.25 -41.87,-26.25 -17.93,0 -31.53,8.8203 -40.78,26.5586 -7.42,14.4496 -11.1,32.5816 -11.1,54.3706 0,22.821 2.54,40.321 7.66,52.5 8.94,20.942 25.23,31.411 48.91,31.411 12.18,0 22.65,-5.391 31.4,-16.09 11.76,-14.5 17.66,-36.492 17.66,-65.942 z m -33.28,-0.937 c 0,23.75 -1.72,39.527 -5.16,47.348 -2.42,5.39 -6.48,8.121 -12.19,8.121 -6.17,0 -11.32,-5.43 -15.47,-16.25 -4.18,-10.743 -6.25,-22.93 -6.25,-36.563 0,-21.367 1.41,-36.328 4.22,-44.848 2.89,-8.5503 7.89,-12.8081 15,-12.8081 4.26,0 8.64,6.25 13.13,18.7501 4.45,12.5 6.72,24.566 6.72,36.25 z" /><path
         id="path72"
         style="fill:#010101;fill-opacity:1;fill-rule:nonzero;stroke:none"
         d="m 1485.86,172.27 c 0,-4.301 -3.09,-7.5 -9.22,-9.692 -1.05,-0.238 -2.58,-0.629 -4.53,-1.25 l 0.62,-64.3788 c 0.94,-2.1094 1.61,-3.8281 2.04,-5.1484 1.25,-3.75 1.87,-7.0313 1.87,-9.8516 0,-3.039 -1.52,-5.539 -4.53,-7.5 -2.93,-1.8711 -6.09,-2.8086 -9.53,-2.8086 -7.11,0 -13.52,1.168 -19.22,3.5899 -7.93,3.2109 -12.31,8.0078 -13.13,14.3789 -0.43,2.3789 0.71,6.289 3.44,11.7186 2.81,5.391 4.22,8.832 4.22,10.313 v 47.808 l -37.03,-7.808 0.62,-67.8129 c 0.82,-2.5 1.33,-4.4492 1.57,-5.7773 1.25,-4.9297 1.87,-8.4024 1.87,-10.4727 0,-4.2578 -1.37,-7.3789 -4.06,-9.3789 -1.99,-1.25 -5.31,-2.2578 -10,-3.1211 -3.87,-0.6289 -9.02,0.8633 -15.47,4.3711 -6.37,3.4414 -9.53,7 -9.53,10.6289 0,1.0117 0.35,2.543 1.09,4.5313 0.2,0.6211 0.51,1.5625 0.94,2.8125 l -0.62,73.5981 c -2.19,3 -3.83,5.351 -4.85,7.031 -3.44,5.82 -5.15,10.777 -5.15,14.84 0,1.879 2.03,4.73 6.09,8.589 0.62,0.629 1.64,1.571 3.12,2.821 v 91.25 c -0.43,1.008 -0.62,1.75 -0.62,2.179 -0.63,2.391 -0.94,3.989 -0.94,4.848 0,4.453 2.07,7.422 6.25,8.902 4.14,1.571 9.57,2.348 16.25,2.348 6.33,0 11.88,-1.207 16.56,-3.598 4.69,-2.3 7.04,-5.89 7.04,-10.781 0,-3.668 -1.37,-7.929 -4.07,-12.808 -0.93,-1.563 -2.34,-3.59 -4.22,-6.09 -0.23,-0.242 -0.43,-8.403 -0.62,-24.531 -0.23,-16.18 -0.63,-32.309 -1.25,-48.442 l 36.41,7.344 0.62,79.687 c -0.62,1.641 -1.05,2.891 -1.25,3.75 -1.05,3.629 -1.56,6.25 -1.56,7.813 0.39,4.258 2.22,7.808 5.47,10.629 3.32,2.89 7.11,4.371 11.4,4.371 6.64,0 13.28,-2.152 19.85,-6.402 6.64,-4.301 10,-8.559 10,-12.821 0,-0.621 -1.72,-4.179 -5.16,-10.621 -1.05,-2.109 -2.77,-5.277 -5.16,-9.527 l 0.63,-67.5 c 3.01,-3.25 5.23,-5.711 6.72,-7.352 4.69,-6.051 7.03,-10.929 7.03,-14.679 z" /><path
         id="path74"
         style="fill:#010101;fill-opacity:1;fill-rule:nonzero;stroke:none"
         d="m 1596.17,98.9805 c 0,-8.5508 -5.27,-16.8321 -15.78,-24.8399 -10.55,-8.0117 -22.42,-12.0312 -35.62,-12.0312 -17.31,0 -30.12,7.3398 -38.44,22.0312 -7.31,12.8086 -10.94,30.5074 -10.94,53.1294 0,29.058 5.66,51.558 17.03,67.5 10.39,14.761 23.95,22.179 40.63,22.179 10.19,0 18.63,-3.238 25.31,-9.679 7.38,-7.192 11.09,-17.622 11.09,-31.25 0,-14.18 -5.11,-28.09 -15.31,-41.719 -11.56,-15.321 -26.64,-26.41 -45.16,-33.281 0.2,-4.692 0.71,-8.211 1.57,-10.469 2.81,-7.3127 8.36,-10.9416 16.72,-10.9416 9.14,0 15.7,4.6094 19.68,13.9106 3.95,9.25 7.66,14.101 11.1,14.531 3.32,0 6.79,-1.371 10.47,-4.071 5.07,-3.859 7.65,-8.859 7.65,-14.9995 z m -33.9,86.2495 c 0,3.008 -0.75,5.551 -2.19,7.661 -1.49,2.187 -3.91,3.281 -7.35,3.281 -8.35,0 -14.76,-5.582 -19.21,-16.723 -4.5,-11.051 -6.72,-24.801 -6.72,-41.25 5.5,1.332 12.34,6.289 20.47,14.852 10,10.621 15,21.328 15,32.179 z" /><path
         id="path76"
         style="fill:#010101;fill-opacity:1;fill-rule:nonzero;stroke:none"
         d="m 1657.73,72.7305 c 0,-4.4492 -2.11,-8.3203 -6.25,-11.5586 -4.18,-3.2031 -9.53,-4.8438 -16.09,-4.8438 -4.49,0 -8.91,1.211 -13.28,3.5938 -4.38,2.3086 -6.88,5.3867 -7.5,9.2187 -0.55,3.0078 -0.43,5.6602 0.31,7.9688 2.27,7.8906 3.44,12.9687 3.44,15.1601 V 108.52 c 0,20.699 -0.08,41.949 -0.16,63.75 -0.11,21.871 -0.27,41.281 -0.47,58.281 -0.23,16.949 -0.31,31.008 -0.31,42.179 l -0.62,9.848 c -0.43,4.063 1.6,7.262 6.09,9.692 4.45,2.5 9.14,3.75 14.06,3.75 7.89,0 13.28,-1.02 16.1,-2.969 2.89,-1.879 4.37,-5.391 4.37,-10.473 0,-3.437 -0.74,-8.047 -2.19,-13.75 -0.43,-1.879 -1.21,-4.449 -2.34,-7.656 V 94.1406 c 0,-3.4414 0.78,-7.1914 2.34,-11.25 1.65,-4.0625 2.5,-7.4609 2.5,-10.1601 z" /><path
         id="path78"
         style="fill:#010101;fill-opacity:1;fill-rule:nonzero;stroke:none"
         d="m 1781.95,145.699 c 0,-22.179 -4.06,-40.777 -12.18,-55.7771 -8.99,-16.4805 -20.59,-24.6914 -34.85,-24.6914 -4.69,0 -10,3.1289 -15.94,9.3789 -1.99,1.8711 -4.45,4.9219 -7.34,9.2187 0,-8.9883 0.04,-17.8867 0.16,-26.8789 0.08,-8.9375 0.47,-13.9375 1.09,-15 0,-0.8203 0.94,-3.039 2.81,-6.7187 1.96,-3.6289 2.97,-6.7891 2.97,-9.5313 0,-5.3906 -2.3,-9.7187 -6.87,-12.9687 -4.61,-3.32034 -9.92,-5.00003 -15.94,-5.00003 -5.55,0 -10.24,1.53125 -14.06,4.53903 -3.87,2.9297 -5.78,6.9493 -5.78,12.0313 0,3.2383 0.78,7.6094 2.34,13.1211 0.19,0.8594 0.62,2.1484 1.25,3.9062 V 200.391 l -4.53,14.058 c 0,4.262 1.87,7.43 5.62,9.531 3.75,2.192 8.48,3.29 14.22,3.29 5.08,0 9.26,-0.629 12.5,-1.879 3.2,-1.172 5.04,-3.551 5.47,-7.192 l -2.97,-12.027 c 4.06,5.308 8.2,9.418 12.5,12.348 5.63,3.82 11.49,5.781 17.66,5.781 15.31,0 26.48,-8.09 33.59,-24.223 5.51,-13.047 8.28,-31.168 8.28,-54.379 z m -35.47,2.5 c 0,3.641 0,6.41 0,8.281 0,16.641 -1.25,27.7 -3.75,33.129 -2.42,5.391 -6.05,8.121 -10.93,8.121 -4.07,0 -7.93,-5.851 -11.57,-17.5 -3.67,-11.558 -5.46,-23.082 -5.46,-34.531 0,-9.918 1.71,-20.539 5.15,-31.871 3.44,-11.25 7.38,-16.8788 11.88,-16.8788 4.68,0 8.28,5.3518 10.78,16.1018 2.58,10.82 3.9,22.539 3.9,35.148 z" /></g></g></svg>