<?xml version="1.0" encoding="UTF-8" standalone="no"?>
<svg xmlns:dc="http://purl.org/dc/elements/1.1/" xmlns:cc="http://creativecommons.org/ns#"
  xmlns:rdf="http://www.w3.org/1999/02/22-rdf-syntax-ns#" xmlns:svg="http://www.w3.org/2000/svg"
  xmlns="http://www.w3.org/2000/svg" viewBox="0 0 497.33334 166.66667" height="166.66667" width="497.33334"
  xml:space="preserve" id="svg2" version="1.1">
  <metadata id="metadata8">
    <rdf:RDF>
      <cc:Work rdf:about="">
        <dc:format>image/svg+xml</dc:format>
        <dc:type rdf:resource="http://purl.org/dc/dcmitype/StillImage" />
      </cc:Work>
    </rdf:RDF>
  </metadata>
  <defs id="defs6" />
  <g transform="matrix(1.3333333,0,0,-1.3333333,0,166.66667)" id="g10">
    <g transform="scale(0.1)" id="g12">
      <path id="path14" style="fill:#bd352e;fill-opacity:1;fill-rule:evenodd;stroke:none"
        d="m 3575.59,442.969 c 1.29,-1.598 1.29,-3.199 0,-4.77 -0.55,-0.539 -1.33,-0.82 -2.39,-0.82 -0.82,0 -1.48,0.281 -1.99,0.82 -20.94,18.281 -37.62,56.922 -50.04,115.981 -12.22,59.058 4.61,132.66 50.43,220.82 2.89,2.379 16.95,25.82 42.07,70.309 25.2,44.222 48.21,100.242 69.14,168.011 21.17,67.77 27.27,137.81 18.24,210.12 -0.23,1.83 0.55,3.04 2.39,3.55 2.15,0 3.47,-0.9 3.98,-2.77 9.3,-73.09 3.2,-143.75 -18.28,-212.11 -21.13,-68.559 -44.45,-125.079 -69.88,-169.61 -25.43,-44.73 -39.57,-68.281 -42.5,-70.66 -36.56,-68.051 -53.91,-126.449 -52.03,-175.16 1.87,-48.981 10.19,-86.719 25.04,-113.2 14.8,-26.492 23.43,-40 25.82,-40.511 m 18.63,-43.707 -40.12,-139.422 c -7.15,-6.871 -15.74,-7.262 -25.82,-1.211 h -0.35 l -268.91,156.922 0.39,1.211 43.68,152.109 271.68,-158.09 -41.68,-140.23 c 10.54,-4.223 16.29,-4.34 17.03,-0.352 l 38.55,132.653 5.55,-3.59 M 3490.98,162.539 c -0.78,-1.84 -1.49,-3.707 -2,-5.551 -9.8,-22.539 -19.45,-44.367 -28.98,-65.5388 -9.3,-20.9375 -11.29,-40.8984 -5.98,-59.9687 -5.31,-3.9805 -10.58,-7.6914 -15.86,-11.1289 -3.98,4.7695 -7.96,9.6484 -11.91,14.6875 -5.59,-3.4375 -11.17,-6.7578 -16.72,-9.918 -3.67,5.0391 -7.26,10.1875 -10.7,15.4687 -5.82,-2.8906 -11.68,-5.6679 -17.5,-8.3203 -3.17,5.2696 -6.33,10.6993 -9.53,16.2813 -6.1,-2.4219 -12.03,-4.7617 -17.85,-7.1406 -2.93,5.539 -5.86,11.25 -8.75,17.0703 -6.1,-2.1094 -12.08,-4.2188 -17.86,-6.3711 -2.65,6.1289 -5.19,12.0703 -7.57,17.8906 -6.33,-1.8398 -12.58,-3.5898 -18.64,-5.1602 -2.11,6.0586 -4.25,12.0391 -6.36,17.8594 -6.37,-1.3281 -12.74,-2.6172 -19.07,-3.9492 -1.87,6.0508 -3.71,12.1914 -5.58,18.2383 -6.33,-1.0469 -12.58,-2.1094 -18.64,-3.1563 -1.87,6.367 -3.47,12.578 -4.8,18.668 -6.6,-0.82 -12.97,-1.602 -19.02,-2.379 -1.61,6.359 -2.93,12.578 -3.99,18.668 -6.64,-0.269 -12.97,-0.699 -19.1,-1.207 -1.29,6.367 -2.34,12.578 -3.16,18.668 -6.61,0 -12.97,-0.27 -19.03,-0.82 -1.09,6.64 -1.87,13.011 -2.42,19.101 -6.87,0.239 -13.36,0.391 -19.45,0.391 -0.78,6.328 -1.33,12.699 -1.6,19.058 -6.88,0.821 -13.21,1.059 -19.07,0.821 -2.38,3.437 -2.61,6.719 -0.78,9.929 1.84,3.43 1.96,6.481 0.39,9.141 -0.78,3.938 -0.78,5.82 0,5.539 0.28,-1.601 5.55,-4.64 15.9,-9.14 10.04,-4.489 22.89,-0.11 38.52,13.089 39.96,36.051 49.53,34.063 28.59,-5.937 -9.02,-18.281 -6.48,-25.152 7.58,-20.621 14.02,4.719 34.8,21.679 62.34,50.82 24.1,24.649 34.81,28.981 32.15,13.078 -2.89,-16.129 -5.43,-26.32 -7.54,-30.539 -1.56,-2.93 -5.82,-14.73 -12.69,-35.359 -7.15,-20.93 -8.21,-34.18 -3.17,-39.719 5,-5.312 24.77,13.75 59.14,57.188 34.73,43.671 54.69,64.058 60,61.171 5.28,-2.929 4.61,-13.519 -1.99,-31.8 -6.87,-18.282 -10.98,-28.711 -12.3,-31.371 -1.6,-2.649 -5.32,-12.969 -11.14,-30.969 -5.58,-17.742 -4.1,-26.719 4.38,-27.031 8.75,-0.508 33.9,24.25 75.47,74.289 1.33,1.839 7.26,7.421 17.85,16.679 10.62,8.992 17.73,10.434 21.48,4.383 3.68,-6.101 -3.98,-31.141 -23.04,-75.082 m -1295.63,-86.9492 783.24,6.3204 c 3.44,0 22.78,0.6718 58.01,1.9609 35.2,1.3594 65.51,3.0781 90.94,5.1875 25.39,2.3906 25.04,4.9219 -1.17,7.543 -26.25,2.9297 -99.07,5.6994 -218.48,8.3594 l -715.35,14.301 c -2.89,0 -24.88,0.898 -65.94,2.769 -40.74,1.559 -82.85,3.828 -126.29,6.758 -43.67,2.93 -70.82,6.211 -81.4,9.922 -10.63,3.988 12.97,8.09 70.66,12.309 57.73,4.25 167.23,8.628 328.52,13.121 l 812.65,13.91 c 0.24,-0.321 0.63,-0.672 1.17,-1.211 2.62,-2.66 6.37,-3.949 11.1,-3.949 1.64,-0.27 3.32,-0.161 5.19,0.347 -1.32,-6.047 0.24,-11.636 4.73,-16.636 2.93,-2.692 6.48,-3.981 10.74,-3.981 1.88,0 3.71,0.231 5.59,0.777 -0.78,-6.097 1.05,-11.519 5.54,-16.25 1.84,-1.878 5.16,-3.089 9.93,-3.628 2.38,0 4.65,0.312 6.75,0.82 -0.82,-5.82 1.18,-11.102 5.98,-15.899 1.84,-1.562 5,-2.5 9.49,-2.781 2.7,0 5.04,0.281 7.19,0.82 -0.27,-5.859 1.99,-11.011 6.72,-15.5 1.87,-1.5698 4.8,-2.4995 8.75,-2.7808 2.93,0.2813 5.7,0.7813 8.36,1.5703 -0.27,-5.789 2.11,-10.9804 7.15,-15.4687 2.38,-1.332 5.15,-2 8.32,-2 2.93,0 5.86,0.5078 8.75,1.5703 0,-5.7813 2.65,-10.7109 7.93,-14.6523 2.38,-1.3282 4.92,-1.9883 7.58,-1.9883 3.43,0 6.6,0.6601 9.53,1.9883 0.23,-5.8594 3.16,-10.629 8.71,-14.2969 2.15,-1.0899 4.37,-1.6016 6.76,-1.6016 3.71,0 7.14,0.9414 10.35,2.7695 0.5,-5.8203 3.67,-10.4687 9.53,-13.8984 1.83,-1.0625 3.83,-1.6016 5.94,-1.6016 3.98,0.2696 7.65,1.4805 11.09,3.5899 0.82,-5.8203 4.26,-10.3086 10.35,-13.5195 0.82,-0.2305 1.45,-0.3907 1.99,-0.3907 -51.64,1.1016 -137.81,2.7813 -258.59,5.1602 -120.98,2.6601 -251.91,5.6992 -392.81,9.1406 -141.14,3.4414 -267.58,7.1485 -379.3,11.1289 -111.76,3.711 -184.3,7.2696 -217.66,10.711 -33.36,3.4296 -2.77,6.4804 91.76,9.1796 M 3606.56,1085.62 c 0,1.84 4.22,8.05 12.7,18.68 8.75,10.58 21.44,14.02 38.12,10.27 0.28,-0.23 0.51,-0.51 0.78,-0.74 11.96,-6.92 15.12,-19.61 9.54,-38.17 -7.93,-17.73 -18.79,-25.15 -32.54,-22.22 -12.74,6.87 -16.29,19.72 -10.75,38.51 2.66,6.37 5.98,11.53 9.93,15.51 -14.54,-11.41 -21.96,-19.57 -22.23,-24.65 -1.33,-1.56 -2.66,-7.42 -3.99,-17.46 -1.05,-9.8 4.81,-18.94 17.47,-27.42 1.64,-1.05 1.99,-2.5 1.21,-4.38 -0.51,-1.05 -1.45,-1.56 -2.78,-1.56 -0.54,0 -1.05,0.12 -1.6,0.39 -15.08,10.08 -21.95,21.17 -20.66,33.36 1.64,11.92 3.2,18.52 4.8,19.88 m 121.14,141.37 c 0.5,3.21 -2.39,9.42 -8.75,18.67 -6.61,9.57 -20.4,3.32 -41.29,-18.67 -3.99,1.6 -25.32,-26.72 -63.99,-84.96 -38.63,-58.51 -70.27,-156.518 -94.92,-293.94 -15.35,-90.82 -38.24,-154.379 -68.67,-190.629 -30.2,-36.289 -58.13,-57.07 -83.83,-62.383 -25.94,-5.308 -39.73,-6.879 -41.29,-4.769 -0.82,0.511 -4.49,0.281 -11.13,-0.778 -6.64,-0.82 -11.64,-5.312 -15.12,-13.511 -0.27,-0.508 -0.51,-1.098 -0.78,-1.61 l -45.27,-158.082 c -2.39,-6.598 -11.25,-25.937 -26.61,-57.969 -15.35,-32.308 -33.63,-64.73 -54.84,-97.308 -21.13,-32.301 -41.68,-51.91 -61.56,-58.781 0,0 0,-0.122 0,-0.391 0,0 0,0.109 0,0.391 H 1632.54 c -1.88,0 -14.96,-0.391 -39.34,-1.219 -24.65,-0.781 -49.1,-2.219 -73.47,-4.332 -24.65,-2.149 -37.85,-5.309 -39.73,-9.571 2.38,-5.039 19.45,-8.707 51.25,-11.097 31.76,-2.379 64.18,-4.492 97.3,-6.36 33.13,-1.882 52.7,-4.609 58.75,-8.359 1.1,-3.672 -16.52,-6.062 -52.81,-7.113 -36.01,-1.367 -72.81,-2.809 -110.39,-4.379 -37.34,-1.871 -57.58,-5.461 -60.78,-10.738 2.93,-4.762 25.39,-8.204 67.5,-10.313 41.84,-2.109 84.49,-4.098 127.93,-5.98 43.16,-1.559 68.28,-4.219 75.47,-7.93 2.38,-3.707 -4.65,-6.481 -21.1,-8.359 -16.64,-1.829 -33.86,-3.938 -51.6,-6.321 -17.73,-2.4295 -27.42,-6.2185 -28.98,-11.5271 1.56,-4.4922 13.48,-7.4219 35.74,-8.75 22.5,-1.6016 45.55,-3.043 69.1,-4.3321 23.28,-1.1015 37.74,-3.4804 43.28,-7.1914 1.61,-3.6679 -11.64,-6.9882 -39.72,-9.9179 -28.32,-2.9297 -57.19,-6.1016 -86.56,-9.5313 -29.38,-3.7187 -45.28,-8.25 -47.66,-13.5195 2.62,-6.8789 33.87,-12.418 93.71,-16.6797 59.84,-4.2187 131.21,-7.1484 214.1,-8.7109 h 1580.82 c 1.84,-0.26957 3.95,-0.39066 6.33,-0.39066 -1.84,0.23047 -4.88,8.05076 -9.14,23.40236 -4.49,15.3476 -0.51,36.6797 11.91,63.9375 1.88,2.1133 9.93,18.0117 24.26,47.7027 14.3,29.879 23.05,61.559 26.21,94.918 0,0.27 0.12,0.391 0.39,0.391 l 45.67,158.871 c 0.78,0.777 1.87,5.969 3.16,15.508 1.37,9.801 -2.11,19.293 -10.31,28.59 -2.11,0.781 -9.53,16.133 -22.23,46.051 -12.73,30.199 -18.79,71.371 -18.28,123.519 0.55,51.91 19.77,111.211 57.62,177.973 57.18,96.91 91.6,178.59 103.24,245.038 11.64,66.48 16.13,130.31 13.52,191.44" />
      <path id="path16" style="fill:#bd352e;fill-opacity:1;fill-rule:evenodd;stroke:none"
        d="m 3522.73,273.359 c -0.5,0 -1.05,0.121 -1.56,0.391 l -246.68,145 c -1.56,1.051 -1.99,2.5 -1.17,4.371 1.06,1.57 2.5,1.957 4.38,1.18 l 246.64,-145 c 1.6,-1.063 1.95,-2.5 1.21,-4.379 -0.55,-0.742 -1.49,-1.293 -2.82,-1.563" />
      <path id="path18" style="fill:#bd352e;fill-opacity:1;fill-rule:evenodd;stroke:none"
        d="m 3529.1,292.422 c -0.55,0 -1.05,0.156 -1.6,0.387 L 3280.86,437.77 c -1.6,1.058 -1.99,2.539 -1.17,4.378 1.05,1.602 2.5,1.993 4.33,1.211 l 246.64,-145 c 1.61,-1.058 2,-2.5 1.22,-4.339 -0.51,-0.821 -1.45,-1.321 -2.78,-1.598" />
      <path id="path20" style="fill:#bd352e;fill-opacity:1;fill-rule:evenodd;stroke:none"
        d="m 3556.48,386.559 -242.65,142.582 c -1.84,0.82 -3.32,0.39 -4.38,-1.172 -0.27,0 -0.39,-0.117 -0.39,-0.43 l -21.44,-69.098 143.75,-83.402 c -1.29,2.93 3.98,10.473 15.9,22.621 11.91,12.18 38.78,11.68 80.66,-1.57 l 25.39,-15.07 c 0.55,-0.321 1.06,-0.43 1.6,-0.43 1.33,0 2.27,0.539 2.78,1.601 0.78,1.829 0.39,3.321 -1.22,4.368" />
      <path id="path22" style="fill:#bd372e;fill-opacity:1;fill-rule:nonzero;stroke:none"
        d="m 123.91,833.359 c 0,-6.8 -2,-12.031 -5.941,-15.781 -3.989,-3.668 -8.707,-5.469 -14.219,-5.469 -9.6914,0 -17.8086,-1.168 -24.3711,-3.437 -9.0703,-4.063 -17.5781,-7.621 -25.4687,-10.621 -0.5508,-1.571 -0.8594,-6.961 -0.9414,-16.102 -0.1172,-9.058 -0.1602,-16.64 -0.1602,-22.648 0,-9.379 0,-17.192 0,-23.442 0,-6.168 0.082,-11.8 0.3125,-16.879 4.8906,4.071 8.5977,6.961 11.0977,8.75 8.121,6.02 13.3203,9.071 15.621,9.071 8.3204,0 15.8594,-3.442 22.6602,-10.321 6.879,-6.789 10.309,-13.82 10.309,-21.089 0,-3.551 -0.93,-6.95 -2.809,-10.161 -1.879,-3.121 -4.34,-4.679 -7.34,-4.679 -19.6092,0 -34.1795,-4.692 -43.7498,-14.071 -1.5704,-1.558 -3.25,-3.859 -5,-6.871 l -0.3204,-55.16 c 0.5118,-1.25 0.7891,-2.258 0.7891,-2.969 1.2422,-5.308 1.6016,-9.371 1.0899,-12.179 C 53.1602,586.91 44.6914,580.699 30,580.699 c -6.8789,0 -13.4414,2.781 -19.6914,8.281 C 4.14063,594.609 0.699219,599.691 0,604.301 l 7.96875,10.621 -0.30859,219.687 c 0,4.77 1.75,8.789 5.30864,12.032 3.5117,3.32 8.832,5 15.9414,5 1.4414,0 2.5703,0 3.4296,0 3.5196,-0.231 8.4805,-2.153 14.8516,-5.782 0.9297,-0.429 2.1875,-1.168 3.75,-2.187 1.9492,-1.051 8.5899,1.098 19.8399,6.406 11.3281,5.313 18.2773,7.973 20.7773,7.973 7.582,0 14.8904,-2.742 21.8824,-8.129 6.95,-5.434 10.469,-10.942 10.469,-16.563 z m 69.531,-5.629 c 0,-2.109 -0.632,-4.921 -1.882,-8.429 -3.039,-8.563 -4.528,-16.801 -4.528,-24.692 0,-1.988 -1.64,-3.828 -4.84,-5.468 -3.132,-1.68 -6.57,-2.5 -10.312,-2.5 -2.309,-0.231 -4.34,-0.313 -6.098,-0.313 -4.801,0 -8.75,0.973 -11.871,2.973 -4.301,3 -6.41,7.969 -6.41,14.84 0,0.699 0.352,1.597 1.09,2.66 2.07,2.5 3.129,11.25 3.129,26.25 0,2.5 1.011,4.679 3.121,6.558 2.191,1.95 6.449,3.161 12.82,3.59 5.5,0 10.539,-0.898 15.149,-2.648 7.07,-2.742 10.632,-7 10.632,-12.821 z m 3.438,-70.308 c 0,-3.043 -1.18,-7.582 -3.438,-13.594 -2.312,-5.937 -4.691,-11.949 -7.191,-17.969 V 623.98 c 1.762,-3.75 3.012,-6.949 3.75,-9.531 2.578,-7.808 3.91,-15.148 3.91,-22.027 0,-4.762 -2.461,-8.473 -7.351,-11.094 -4.797,-2.699 -10.231,-4.058 -16.25,-4.058 -8.118,0 -13.86,2.652 -17.188,7.96 -4.492,7.071 -6.711,20.36 -6.711,39.848 l 0.309,102.652 c -0.547,3.321 -0.778,5.981 -0.778,7.969 -0.742,7.891 -1.101,12.852 -1.101,14.852 0.199,2.258 0.32,3.789 0.32,4.527 0.82,5.082 3.16,9.371 7.031,12.813 3.938,3.437 8.321,5.16 13.118,5.16 7.07,0 14.101,-1.492 21.101,-4.379 6.949,-2.934 10.469,-6.684 10.469,-11.25 z" />
      <path id="path24" style="fill:#bd372e;fill-opacity:1;fill-rule:nonzero;stroke:none"
        d="m 339.531,760.391 c 0,-4.063 -3.051,-7.891 -9.062,-11.411 -7.188,-3.039 -14.18,-5.929 -20.938,-8.75 l -54.062,-61.871 c 0.312,-12.929 0.511,-25.781 0.621,-38.589 0.082,-12.821 0.39,-19.692 0.941,-20.629 1.559,-2.621 2.699,-4.653 3.438,-6.09 2.261,-4.93 3.441,-8.992 3.441,-12.192 0,-6.371 -2.582,-11.41 -7.66,-15.16 -5,-3.82 -10.941,-5.777 -17.809,-5.777 -6.882,0 -12.191,1.68 -15.941,5 -4.801,4.258 -7.191,10.816 -7.191,19.687 0,2.071 0.082,4.102 0.312,6.09 0,0.512 0.16,1.41 0.469,2.66 l 0.32,129.219 c -1.058,1.953 -1.84,3.633 -2.351,5 -1.789,4.262 -2.77,7.031 -2.969,8.281 0,4.262 2.969,7.5 8.91,9.692 5.941,2.179 12.34,3.277 19.219,3.277 6.011,0 11.011,-0.859 15,-2.5 3.941,-1.68 5.941,-4.808 5.941,-9.379 0,-3.039 -1.68,-6.168 -5,-9.371 l 0.309,-13.75 34.691,36.094 c 2.5,2.808 4.762,4.918 6.871,6.406 3.949,3.32 8.629,5 14.059,5 8.012,0 14.73,-1.879 20.16,-5.629 5.512,-3.668 8.281,-8.75 8.281,-15.308 z" />
      <path id="path26" style="fill:#bd372e;fill-opacity:1;fill-rule:nonzero;stroke:none"
        d="m 458.16,633.199 c 0,-15.738 -5.582,-29.058 -16.711,-40 -11.179,-10.82 -24.179,-16.25 -39.07,-16.25 -14.68,0 -28.859,8.871 -42.5,26.571 -12.18,15.929 -17.418,26.281 -15.617,31.089 0.699,2.27 3.199,4.301 7.5,6.09 4.367,1.762 8.828,2.66 13.437,2.66 13.43,0 22.102,-5.589 26.09,-16.718 4.063,-11.172 9.262,-16.719 15.621,-16.719 3.012,0 5.32,2.738 6.879,8.277 1.563,5.629 2.34,11.723 2.34,18.281 -16.051,11.45 -30,22.86 -41.867,34.219 -12.934,12.391 -19.383,26.449 -19.383,42.192 0,16.949 4.922,31.64 14.851,44.058 9.879,12.5 22.18,18.75 36.872,18.75 13.828,0 24.57,-3.82 32.187,-11.398 7.582,-7.621 11.41,-18.68 11.41,-33.129 0,-1.563 0.852,-4.613 2.653,-9.063 1.019,-2.621 1.558,-4.808 1.558,-6.558 0,-6.063 -2.031,-11.492 -6.09,-16.25 -4.058,-4.813 -9.492,-7.192 -16.25,-7.192 -7.109,0 -12.191,1.602 -15.308,4.84 -3.75,4.071 -5.633,11.762 -5.633,23.129 0,3.832 0,6.641 0,8.442 0,4.761 -0.43,8.281 -1.25,10.46 -0.738,2.192 -2.457,3.29 -5.149,3.29 -3.871,0 -6.41,-2.04 -7.66,-6.098 -1.25,-4.063 -1.871,-9.922 -1.871,-17.5 0,-11.684 10.461,-24.371 31.403,-38.121 21.019,-13.672 31.558,-29.461 31.558,-47.352 z" />
      <path id="path28" style="fill:#bd372e;fill-opacity:1;fill-rule:nonzero;stroke:none"
        d="m 590.551,757.422 c 0,-5.121 -1.102,-9.453 -3.281,-12.973 -2.11,-3.551 -5.43,-5.308 -10,-5.308 -0.942,-0.231 -3.989,0.347 -9.071,1.718 -5.109,1.332 -9.449,1.801 -12.969,1.411 l -12.179,-6.098 V 622.891 c 0,-3.871 2.07,-9.141 6.25,-15.782 4.25,-6.679 6.398,-11.839 6.398,-15.468 0,-5 -2.461,-9.063 -7.34,-12.192 -4.808,-3.199 -10.738,-4.84 -17.808,-4.84 -9.61,0 -16.063,1.52 -19.379,4.532 -6.371,5.859 -9.531,18.91 -9.531,39.218 l 1.25,103.282 c -2.11,-1.801 -3.871,-3.051 -5.313,-3.75 -4.609,-2.5 -9.457,-3.75 -14.527,-3.75 -5.321,0 -11.41,1.757 -18.281,5.308 -6.758,3.52 -10.161,7.539 -10.161,12.031 0,5.399 2.77,8.829 8.282,10.321 12.187,3.32 19.687,5.699 22.5,7.179 l 18.281,9.219 v 29.531 c 0,1.758 -0.863,4.379 -2.5,7.821 -1.684,3.429 -2.152,6.289 -1.402,8.59 2.07,5.82 5.07,10.468 9.058,13.91 4.063,3.429 8.981,5.148 14.844,5.148 7.187,0 13.519,-2.179 19.058,-6.558 5.629,-4.301 8.442,-9.493 8.442,-15.621 0,-3.25 -1.832,-7.43 -5.473,-12.5 -0.429,-0.75 -1.32,-1.879 -2.648,-3.442 v -16.25 c 4.058,3.012 7.219,5.152 9.527,6.402 7.07,4.571 12.031,6.879 14.844,6.879 7.066,0 12.887,-2.929 17.5,-8.75 3.75,-4.808 5.629,-10.121 5.629,-15.937 z" />
      <path id="path30" style="fill:#bd372e;fill-opacity:1;fill-rule:nonzero;stroke:none"
        d="m 836.762,677.578 c 0,-4.297 -1.063,-7.887 -3.133,-10.777 -1.988,-2.93 -3.981,-5.781 -5.93,-8.602 -7.621,-17.5 -13.988,-30.539 -19.07,-39.058 -15.738,-26.371 -30.43,-39.532 -44.059,-39.532 -25.859,0 -44.609,13.012 -56.25,39.063 -9.179,20.308 -13.75,47.027 -13.75,80.156 0,41.012 5.469,76.762 16.41,107.192 12.18,34.14 28.629,51.25 49.372,51.25 18.519,0 31.796,-5.59 39.847,-16.719 6.871,-9.379 15.352,-31.68 25.461,-66.879 1.57,-3.051 2.578,-5.434 3.129,-7.192 1.949,-5.859 2.691,-10.269 2.191,-13.281 -1.492,-6.359 -3.91,-10.777 -7.351,-13.277 -3.43,-2.5 -9.68,-3.75 -18.75,-3.75 -6.359,0 -12.5,1.949 -18.43,5.937 -5.937,4.063 -9.461,8.282 -10.469,12.661 -0.55,2.261 0.7,6.789 3.75,13.589 1.25,2.813 1.399,4.84 0.469,6.09 -1.801,8.641 -3.359,15 -4.687,19.071 -4.063,12.89 -8.242,19.371 -12.5,19.371 -5.551,0 -10.742,-13.121 -15.633,-39.371 -4.801,-26.25 -7.18,-50 -7.18,-71.25 0,-5 0.153,-8.559 0.461,-10.629 2.27,-26.371 3.91,-42.032 4.852,-47.032 3.008,-16.988 7.687,-25.468 14.058,-25.468 6.129,0 12.34,8.668 18.59,26.089 2.07,5.821 4.61,14.571 7.66,26.25 -0.23,5.079 0.309,8.79 1.559,11.098 4.07,7.582 13.441,11.402 28.133,11.402 5.816,0 10.816,-1.558 15,-4.679 4.136,-3.051 6.25,-6.961 6.25,-11.723 z" />
      <path id="path32" style="fill:#bd372e;fill-opacity:1;fill-rule:nonzero;stroke:none"
        d="m 902.27,593.199 c 0,-5.308 -2.5,-9.84 -7.5,-13.59 -4.93,-3.828 -11.25,-5.781 -19.071,-5.781 -5.308,0 -10.578,1.402 -15.777,4.223 -5.231,2.808 -8.203,6.48 -8.902,10.929 -0.551,3.52 -0.43,6.719 0.308,9.54 2.813,9.371 4.223,15.351 4.223,17.96 v 19.379 c 0,24.45 -0.082,49.692 -0.16,75.621 -0.121,26.02 -0.313,49.11 -0.621,69.219 -0.239,20.199 -0.321,36.879 -0.321,50 l -0.777,11.879 c -0.551,4.762 1.879,8.633 7.187,11.563 5.313,2.89 10.86,4.379 16.719,4.379 9.371,0 15.781,-1.18 19.223,-3.442 3.429,-2.308 5.148,-6.488 5.148,-12.5 0,-4.058 -0.898,-9.527 -2.648,-16.406 -0.551,-2.301 -1.41,-5.313 -2.66,-9.063 V 618.672 c 0,-4.063 0.937,-8.512 2.808,-13.281 1.879,-4.801 2.821,-8.871 2.821,-12.192 z" />
      <path id="path34" style="fill:#bd372e;fill-opacity:1;fill-rule:nonzero;stroke:none"
        d="m 1083.67,607.27 c 0,-3.25 -1.79,-7.43 -5.31,-12.5 -4.61,-6.329 -9.81,-9.54 -15.63,-9.54 -14.18,0 -23.82,6.719 -28.9,20.161 -1.49,4.257 -2.62,10.98 -3.44,20.16 -6.8,-11.492 -12.81,-19.961 -18.12,-25.473 -16.489,-17.187 -34.692,-25.777 -54.692,-25.777 -11.68,0 -21.406,4.371 -29.219,13.121 -7.738,8.629 -11.558,19.058 -11.558,31.25 0,23.828 9.097,42.578 27.34,56.25 6.328,4.769 23.32,13.168 50.937,25.156 18.202,7.813 27.342,16.402 27.342,25.781 0,6.871 -2.93,11.172 -8.75,12.969 -1.79,0.512 -4.8,0.781 -9.06,0.781 -14.688,0 -27.93,-5.699 -39.688,-17.031 -11.801,-11.25 -19.453,-16.879 -22.973,-16.879 -6.359,0 -11.359,1.879 -15,5.629 -3.668,3.832 -5.469,9.922 -5.469,18.281 0,8.629 11.329,17.891 34.071,27.813 24.371,10.629 48.319,15.937 71.869,15.937 20,0 32.38,-17.339 37.19,-52.031 2.58,-29.379 5.23,-58.668 7.97,-87.808 1.56,-7.43 3.79,-13.09 6.72,-17.04 2.89,-3.859 4.37,-6.949 4.37,-9.21 z m -58.59,76.402 c -15.43,-7.621 -26.959,-13.711 -34.529,-18.281 -23.36,-14.371 -35,-26.411 -35,-36.09 0,-3.563 1.25,-7.031 3.75,-10.473 2.578,-3.359 5.66,-5.156 9.219,-5.469 7.57,0 16.601,5.039 27.031,15.161 13.939,13.75 23.789,32.101 29.529,55.152 z" />
      <path id="path36" style="fill:#bd372e;fill-opacity:1;fill-rule:nonzero;stroke:none"
        d="m 1207.77,633.199 c 0,-15.738 -5.58,-29.058 -16.72,-40 -11.17,-10.82 -24.17,-16.25 -39.06,-16.25 -14.69,0 -28.87,8.871 -42.5,26.571 -12.19,15.929 -17.42,26.281 -15.62,31.089 0.7,2.27 3.2,4.301 7.5,6.09 4.37,1.762 8.83,2.66 13.43,2.66 13.44,0 22.11,-5.589 26.1,-16.718 4.06,-11.172 9.26,-16.719 15.62,-16.719 3.01,0 5.32,2.738 6.88,8.277 1.56,5.629 2.34,11.723 2.34,18.281 -16.05,11.45 -30,22.86 -41.87,34.219 -12.93,12.391 -19.38,26.449 -19.38,42.192 0,16.949 4.92,31.64 14.85,44.058 9.88,12.5 22.18,18.75 36.87,18.75 13.83,0 24.57,-3.82 32.19,-11.398 7.58,-7.621 11.4,-18.68 11.4,-33.129 0,-1.563 0.86,-4.613 2.66,-9.063 1.02,-2.621 1.56,-4.808 1.56,-6.558 0,-6.063 -2.03,-11.492 -6.09,-16.25 -4.06,-4.813 -9.49,-7.192 -16.25,-7.192 -7.11,0 -12.19,1.602 -15.31,4.84 -3.75,4.071 -5.63,11.762 -5.63,23.129 0,3.832 0,6.641 0,8.442 0,4.761 -0.43,8.281 -1.25,10.46 -0.74,2.192 -2.46,3.29 -5.15,3.29 -3.87,0 -6.41,-2.04 -7.66,-6.098 -1.25,-4.063 -1.88,-9.922 -1.88,-17.5 0,-11.684 10.47,-24.371 31.41,-38.121 21.02,-13.672 31.56,-29.461 31.56,-47.352 z" />
      <path id="path38" style="fill:#bd372e;fill-opacity:1;fill-rule:nonzero;stroke:none"
        d="m 1328.75,633.199 c 0,-15.738 -5.59,-29.058 -16.72,-40 -11.17,-10.82 -24.18,-16.25 -39.06,-16.25 -14.69,0 -28.87,8.871 -42.5,26.571 -12.19,15.929 -17.42,26.281 -15.63,31.089 0.71,2.27 3.21,4.301 7.5,6.09 4.38,1.762 8.83,2.66 13.44,2.66 13.44,0 22.11,-5.589 26.1,-16.718 4.06,-11.172 9.25,-16.719 15.62,-16.719 3.01,0 5.31,2.738 6.88,8.277 1.56,5.629 2.34,11.723 2.34,18.281 -16.06,11.45 -30,22.86 -41.88,34.219 -12.93,12.391 -19.37,26.449 -19.37,42.192 0,16.949 4.92,31.64 14.84,44.058 9.89,12.5 22.19,18.75 36.88,18.75 13.83,0 24.57,-3.82 32.19,-11.398 7.57,-7.621 11.4,-18.68 11.4,-33.129 0,-1.563 0.86,-4.613 2.66,-9.063 1.01,-2.621 1.56,-4.808 1.56,-6.558 0,-6.063 -2.03,-11.492 -6.09,-16.25 -4.07,-4.813 -9.5,-7.192 -16.25,-7.192 -7.11,0 -12.19,1.602 -15.32,4.84 -3.75,4.071 -5.62,11.762 -5.62,23.129 0,3.832 0,6.641 0,8.442 0,4.761 -0.43,8.281 -1.25,10.46 -0.74,2.192 -2.46,3.29 -5.16,3.29 -3.86,0 -6.4,-2.04 -7.65,-6.098 -1.25,-4.063 -1.88,-9.922 -1.88,-17.5 0,-11.684 10.47,-24.371 31.41,-38.121 21.01,-13.672 31.56,-29.461 31.56,-47.352 z" />
      <path id="path40" style="fill:#bd372e;fill-opacity:1;fill-rule:nonzero;stroke:none"
        d="m 1585.27,819.301 c 0,-22.821 -10.7,-53.75 -32.03,-92.821 -21.25,-38.98 -37.93,-58.429 -50,-58.429 -5.62,0 -8.9,0.39 -9.84,1.25 -0.55,1.437 -0.94,2.687 -1.25,3.75 l -0.31,-58.91 4.84,-21.25 c 0,-4.063 -1.95,-7.192 -5.78,-9.371 -3.75,-2.192 -8.28,-3.29 -13.6,-3.29 -12.42,0 -21.25,2.579 -26.56,7.661 -3.55,3.519 -5.86,8.75 -6.87,15.629 0,1.25 1.64,4.679 5,10.308 0.51,0.703 1.29,1.953 2.34,3.75 l -6.09,215 c -0.55,0.82 -0.94,1.871 -1.25,3.121 -0.24,1.449 -0.43,2.582 -0.63,3.442 -1.05,2.5 -0.08,5.238 2.97,8.281 4.06,4.058 10.16,6.098 18.28,6.098 1.76,0.308 3.13,0.46 4.06,0.46 1.76,0 3.44,-0.152 5,-0.46 1.76,-0.239 5.32,-0.942 10.63,-2.192 10.62,3.512 20.66,6.793 30.16,9.844 9.57,3.008 16.4,4.527 20.46,4.527 13.44,0 25.2,-4.961 35.32,-14.84 10.08,-9.918 15.15,-20.429 15.15,-31.558 z m -45.93,-4.223 c 0,4.57 -0.71,7.5 -2.04,8.75 -1.25,1.332 -3.24,2.113 -5.93,2.344 -5.86,0 -12.82,-2.652 -20.94,-7.973 -8.13,-5.308 -15.12,-12.027 -20.94,-20.148 l 0.78,-75.942 c 7.82,4.45 17.89,17.969 30.32,40.469 12.5,22.582 18.75,40.082 18.75,52.5 z" />
      <path id="path42" style="fill:#bd372e;fill-opacity:1;fill-rule:nonzero;stroke:none"
        d="m 1762.03,607.27 c 0,-3.25 -1.8,-7.43 -5.31,-12.5 -4.61,-6.329 -9.81,-9.54 -15.63,-9.54 -14.18,0 -23.82,6.719 -28.9,20.161 -1.49,4.257 -2.62,10.98 -3.44,20.16 -6.8,-11.492 -12.81,-19.961 -18.13,-25.473 -16.48,-17.187 -34.68,-25.777 -54.68,-25.777 -11.68,0 -21.41,4.371 -29.22,13.121 -7.74,8.629 -11.56,19.058 -11.56,31.25 0,23.828 9.1,42.578 27.34,56.25 6.33,4.769 23.32,13.168 50.94,25.156 18.2,7.813 27.34,16.402 27.34,25.781 0,6.871 -2.93,11.172 -8.75,12.969 -1.8,0.512 -4.8,0.781 -9.06,0.781 -14.69,0 -27.93,-5.699 -39.69,-17.031 -11.8,-11.25 -19.45,-16.879 -22.97,-16.879 -6.36,0 -11.36,1.879 -15,5.629 -3.67,3.832 -5.47,9.922 -5.47,18.281 0,8.629 11.33,17.891 34.07,27.813 24.37,10.629 48.32,15.937 71.87,15.937 20,0 32.38,-17.339 37.19,-52.031 2.58,-29.379 5.23,-58.668 7.97,-87.808 1.56,-7.43 3.79,-13.09 6.72,-17.04 2.89,-3.859 4.37,-6.949 4.37,-9.21 z m -58.59,76.402 c -15.43,-7.621 -26.96,-13.711 -34.53,-18.281 -23.36,-14.371 -35,-26.411 -35,-36.09 0,-3.563 1.25,-7.031 3.75,-10.473 2.57,-3.359 5.66,-5.156 9.22,-5.469 7.57,0 16.6,5.039 27.03,15.161 13.94,13.75 23.79,32.101 29.53,55.152 z" />
      <path id="path44" style="fill:#bd372e;fill-opacity:1;fill-rule:nonzero;stroke:none"
        d="m 1831.45,827.73 c 0,-2.109 -0.63,-4.921 -1.88,-8.429 -3.05,-8.563 -4.53,-16.801 -4.53,-24.692 0,-1.988 -1.64,-3.828 -4.84,-5.468 -3.13,-1.68 -6.57,-2.5 -10.32,-2.5 -2.3,-0.231 -4.33,-0.313 -6.09,-0.313 -4.81,0 -8.75,0.973 -11.88,2.973 -4.29,3 -6.4,7.969 -6.4,14.84 0,0.699 0.35,1.597 1.09,2.66 2.07,2.5 3.13,11.25 3.13,26.25 0,2.5 1.01,4.679 3.12,6.558 2.19,1.95 6.45,3.161 12.81,3.59 5.51,0 10.55,-0.898 15.16,-2.648 7.07,-2.742 10.63,-7 10.63,-12.821 z m 3.43,-70.308 c 0,-3.043 -1.17,-7.582 -3.43,-13.594 -2.31,-5.937 -4.69,-11.949 -7.19,-17.969 V 623.98 c 1.76,-3.75 3.01,-6.949 3.75,-9.531 2.58,-7.808 3.9,-15.148 3.9,-22.027 0,-4.762 -2.46,-8.473 -7.34,-11.094 -4.8,-2.699 -10.23,-4.058 -16.25,-4.058 -8.12,0 -13.87,2.652 -17.19,7.96 -4.49,7.071 -6.72,20.36 -6.72,39.848 l 0.32,102.652 c -0.55,3.321 -0.78,5.981 -0.78,7.969 -0.75,7.891 -1.1,12.852 -1.1,14.852 0.2,2.258 0.31,3.789 0.31,4.527 0.82,5.082 3.17,9.371 7.04,12.813 3.94,3.437 8.32,5.16 13.12,5.16 7.07,0 14.1,-1.492 21.09,-4.379 6.96,-2.934 10.47,-6.684 10.47,-11.25 z" />
      <path id="path46" style="fill:#bd372e;fill-opacity:1;fill-rule:nonzero;stroke:none"
        d="m 2002.23,609.609 c 0,-5.629 -2.66,-9.961 -7.97,-12.968 -5.31,-3.051 -12.66,-4.532 -22.03,-4.532 -10.12,0 -16.25,1.442 -18.44,4.371 -2.19,2.899 -3.28,8.68 -3.28,17.348 0,26.563 -0.63,48.442 -1.88,65.621 -1.25,17.27 -2.65,26.02 -4.22,26.25 -0.93,0 -7.89,-14.058 -20.78,-42.179 -12.93,-28.129 -19.37,-44.61 -19.37,-49.379 -0.86,-2.301 -1.25,-4.45 -1.25,-6.411 0,-2.109 0.31,-4.761 0.94,-7.96 0.62,-3.129 0.93,-5.079 0.93,-5.79 0,-2.5 -0.62,-4.8 -1.87,-6.871 -2.31,-4.257 -4.96,-7.808 -7.97,-10.629 -3.05,-2.808 -6.56,-4.21 -10.63,-4.21 -11.36,0 -19.18,3.589 -23.43,10.781 -4.18,7.07 -6.25,19.289 -6.25,36.719 v 122.808 c -0.24,5.313 -0.32,9.223 -0.32,11.723 0,6.64 0.98,11.871 2.97,15.621 2.07,3.828 6.29,5.777 12.66,5.777 7.81,0 15.16,-2.808 22.03,-8.429 5.82,-4.809 8.75,-8.719 8.75,-11.719 0,-3.563 -1.05,-9.301 -3.12,-17.192 -0.24,-1.25 -0.75,-2.89 -1.57,-4.839 v -45.321 c 7.19,18.012 13.52,31.449 19.07,40.321 16.75,27.07 35.23,40.621 55.46,40.621 9.89,0 16.96,-12.661 21.25,-37.969 3.13,-18.242 4.69,-41.524 4.69,-69.844 0,-8.437 -0.12,-15.469 -0.31,-21.098 -0.12,-5.539 -0.27,-10.152 -0.47,-13.902 1.45,-1.797 2.42,-3.277 2.97,-4.527 2.26,-4.379 3.44,-8.442 3.44,-12.192 z" />
      <path id="path48" style="fill:#bd372e;fill-opacity:1;fill-rule:nonzero;stroke:none"
        d="m 2135.04,757.422 c 0,-5.121 -1.09,-9.453 -3.28,-12.973 -2.11,-3.551 -5.43,-5.308 -10,-5.308 -0.94,-0.231 -3.99,0.347 -9.06,1.718 -5.12,1.332 -9.46,1.801 -12.97,1.411 l -12.19,-6.098 V 622.891 c 0,-3.871 2.07,-9.141 6.25,-15.782 4.26,-6.679 6.41,-11.839 6.41,-15.468 0,-5 -2.47,-9.063 -7.35,-12.192 -4.8,-3.199 -10.74,-4.84 -17.81,-4.84 -9.61,0 -16.06,1.52 -19.38,4.532 -6.36,5.859 -9.53,18.91 -9.53,39.218 l 1.25,103.282 c -2.11,-1.801 -3.86,-3.051 -5.31,-3.75 -4.61,-2.5 -9.45,-3.75 -14.53,-3.75 -5.31,0 -11.41,1.757 -18.28,5.308 -6.76,3.52 -10.16,7.539 -10.16,12.031 0,5.399 2.78,8.829 8.28,10.321 12.19,3.32 19.69,5.699 22.5,7.179 l 18.28,9.219 v 29.531 c 0,1.758 -0.86,4.379 -2.5,7.821 -1.68,3.429 -2.14,6.289 -1.4,8.59 2.07,5.82 5.08,10.468 9.06,13.91 4.06,3.429 8.98,5.148 14.84,5.148 7.19,0 13.52,-2.179 19.07,-6.558 5.62,-4.301 8.43,-9.493 8.43,-15.621 0,-3.25 -1.83,-7.43 -5.46,-12.5 -0.43,-0.75 -1.33,-1.879 -2.66,-3.442 v -16.25 c 4.06,3.012 7.23,5.152 9.53,6.402 7.07,4.571 12.03,6.879 14.84,6.879 7.07,0 12.89,-2.929 17.5,-8.75 3.75,-4.808 5.63,-10.121 5.63,-15.937 z" />
      <path id="path50" style="fill:#bd372e;fill-opacity:1;fill-rule:nonzero;stroke:none"
        d="m 2374.38,629.301 c 0,-12.621 -5.32,-20.86 -15.94,-24.692 -4.81,-1.8 -12.78,-2.66 -23.91,-2.66 -9.92,0 -18.83,-3.551 -26.72,-10.621 -7.81,-7.066 -16.4,-10.629 -25.78,-10.629 -6.87,0 -13.67,3.25 -20.31,9.692 -6.68,6.449 -10,11.949 -10,16.558 0,2.699 1.48,6.172 4.53,10.473 3.01,4.379 4.53,8.598 4.53,12.656 l -14.06,201.402 c -1.06,1.02 -1.84,1.918 -2.34,2.661 -3.25,4.257 -4.85,8.05 -4.85,11.41 0.2,4.058 2.89,7.57 8.13,10.621 5.19,3.008 10.7,4.527 16.56,4.527 7.58,0 15.51,-2.148 23.75,-6.398 8.2,-4.301 12.34,-9.34 12.34,-15.16 0,-2.11 -1.05,-4.653 -3.12,-7.661 -0.43,-1.05 -1.41,-2.46 -2.97,-4.21 l 12.19,-183.129 34.21,14.379 c 3.52,1.32 7.08,1.871 10.63,1.558 4.77,0 9.84,-3.277 15.16,-9.848 5.31,-6.558 7.97,-13.55 7.97,-20.929 z" />
      <path id="path52" style="fill:#bd372e;fill-opacity:1;fill-rule:nonzero;stroke:none"
        d="m 2431.09,623.98 c 0,-1.48 -0.58,-4.179 -1.71,-8.121 -1.18,-3.98 -2.11,-7.461 -2.82,-10.468 0,-2.301 -0.11,-4.371 -0.31,-6.25 -0.12,-1.871 -0.55,-4.493 -1.25,-7.813 -1.8,-4.769 -6.99,-7.539 -15.62,-8.277 -7.82,0 -13.83,1.558 -17.97,4.679 -4.18,3.129 -6.25,7.5 -6.25,13.129 0,3.012 1.48,7.422 4.53,13.282 v 15.629 c 0,2.691 1.48,4.921 4.53,6.71 3.01,1.758 6.72,2.899 11.09,3.442 3.21,0 6.76,-0.473 10.63,-1.402 10.08,-2.821 15.15,-7.661 15.15,-14.54 z" />
      <path id="path54" style="fill:#bd372e;fill-opacity:1;fill-rule:nonzero;stroke:none"
        d="m 2583.67,629.301 c 0,-12.621 -5.31,-20.86 -15.94,-24.692 -4.8,-1.8 -12.77,-2.66 -23.9,-2.66 -9.92,0 -18.83,-3.551 -26.72,-10.621 -7.81,-7.066 -16.41,-10.629 -25.78,-10.629 -6.88,0 -13.67,3.25 -20.31,9.692 -6.68,6.449 -10,11.949 -10,16.558 0,2.699 1.48,6.172 4.53,10.473 3,4.379 4.53,8.598 4.53,12.656 l -14.06,201.402 c -1.06,1.02 -1.84,1.918 -2.35,2.661 -3.24,4.257 -4.84,8.05 -4.84,11.41 0.19,4.058 2.89,7.57 8.12,10.621 5.2,3.008 10.71,4.527 16.57,4.527 7.57,0 15.5,-2.148 23.75,-6.398 8.2,-4.301 12.34,-9.34 12.34,-15.16 0,-2.11 -1.06,-4.653 -3.13,-7.661 -0.43,-1.05 -1.4,-2.46 -2.96,-4.21 l 12.18,-183.129 34.22,14.379 c 3.52,1.32 7.07,1.871 10.63,1.558 4.76,0 9.84,-3.277 15.15,-9.848 5.32,-6.558 7.97,-13.55 7.97,-20.929 z" />
      <path id="path56" style="fill:#bd372e;fill-opacity:1;fill-rule:nonzero;stroke:none"
        d="m 2640.39,623.98 c 0,-1.48 -0.59,-4.179 -1.72,-8.121 -1.17,-3.98 -2.11,-7.461 -2.81,-10.468 0,-2.301 -0.12,-4.371 -0.31,-6.25 -0.12,-1.871 -0.55,-4.493 -1.25,-7.813 -1.8,-4.769 -7,-7.539 -15.63,-8.277 -7.81,0 -13.83,1.558 -17.97,4.679 -4.18,3.129 -6.25,7.5 -6.25,13.129 0,3.012 1.49,7.422 4.53,13.282 v 15.629 c 0,2.691 1.49,4.921 4.54,6.71 3,1.758 6.71,2.899 11.09,3.442 3.2,0 6.76,-0.473 10.62,-1.402 10.08,-2.821 15.16,-7.661 15.16,-14.54 z" />
      <path id="path58" style="fill:#bd372e;fill-opacity:1;fill-rule:nonzero;stroke:none"
        d="m 2799.84,677.578 c 0,-4.297 -1.05,-7.887 -3.12,-10.777 -1.99,-2.93 -3.99,-5.781 -5.94,-8.602 -7.62,-17.5 -13.98,-30.539 -19.06,-39.058 -15.74,-26.371 -30.43,-39.532 -44.06,-39.532 -25.86,0 -44.61,13.012 -56.25,39.063 -9.18,20.308 -13.75,47.027 -13.75,80.156 0,41.012 5.46,76.762 16.4,107.192 12.19,34.14 28.64,51.25 49.38,51.25 18.51,0 31.79,-5.59 39.84,-16.719 6.88,-9.379 15.35,-31.68 25.47,-66.879 1.56,-3.051 2.58,-5.434 3.13,-7.192 1.95,-5.859 2.69,-10.269 2.18,-13.281 -1.48,-6.359 -3.9,-10.777 -7.34,-13.277 -3.44,-2.5 -9.69,-3.75 -18.75,-3.75 -6.37,0 -12.5,1.949 -18.44,5.937 -5.94,4.063 -9.45,8.282 -10.47,12.661 -0.54,2.261 0.71,6.789 3.75,13.589 1.25,2.813 1.41,4.84 0.47,6.09 -1.8,8.641 -3.36,15 -4.69,19.071 -4.06,12.89 -8.24,19.371 -12.5,19.371 -5.54,0 -10.74,-13.121 -15.62,-39.371 -4.81,-26.25 -7.19,-50 -7.19,-71.25 0,-5 0.16,-8.559 0.47,-10.629 2.27,-26.371 3.91,-42.032 4.84,-47.032 3.01,-16.988 7.7,-25.468 14.07,-25.468 6.13,0 12.34,8.668 18.59,26.089 2.07,5.821 4.61,14.571 7.66,26.25 -0.24,5.079 0.31,8.79 1.56,11.098 4.06,7.582 13.44,11.402 28.12,11.402 5.82,0 10.82,-1.558 15,-4.679 4.14,-3.051 6.25,-6.961 6.25,-11.723 z" />
      <path id="path60" style="fill:#bd372e;fill-opacity:1;fill-rule:nonzero;stroke:none"
        d="m 2860.82,623.98 c 0,-1.48 -0.59,-4.179 -1.72,-8.121 -1.17,-3.98 -2.11,-7.461 -2.81,-10.468 0,-2.301 -0.12,-4.371 -0.31,-6.25 -0.12,-1.871 -0.55,-4.493 -1.25,-7.813 -1.8,-4.769 -7,-7.539 -15.63,-8.277 -7.81,0 -13.83,1.558 -17.97,4.679 -4.18,3.129 -6.25,7.5 -6.25,13.129 0,3.012 1.49,7.422 4.53,13.282 v 15.629 c 0,2.691 1.49,4.921 4.54,6.71 3,1.758 6.71,2.899 11.09,3.442 3.2,0 6.76,-0.473 10.62,-1.402 10.08,-2.821 15.16,-7.661 15.16,-14.54 z" />
    </g>
  </g>
</svg>